<svg width="140" height="57" viewBox="0 0 140 57" fill="none" xmlns="http://www.w3.org/2000/svg">
<g clip-path="url(#clip0_60_344)">
<path d="M139.319 25.522C139.319 25.9164 139.306 26.3109 139.254 26.7054C139.123 27.7967 138.822 28.8618 138.351 29.9137C132.855 42.1157 104.679 51.596 70.5494 51.9116C35.5821 52.2272 6.46453 42.8126 1.46547 30.2555C1.07287 29.2694 0.824225 28.2569 0.732619 27.2313C0.719533 27.0209 0.706446 26.8237 0.693359 26.6133C0.693359 26.495 0.693359 26.3766 0.693359 26.2583C0.693359 26.2583 0.693359 30.4133 0.693359 31.0182C0.693359 31.2285 0.706446 31.4258 0.732619 31.6362C0.824225 32.6618 1.07287 33.6742 1.46547 34.6604C6.47762 47.2043 35.5821 56.632 70.5494 56.3164C104.679 56.0009 132.868 46.5206 138.351 34.3185C138.822 33.2666 139.123 32.2016 139.254 31.1102C139.306 30.6631 139.332 30.2161 139.319 29.7559C139.319 29.3877 139.319 25.522 139.319 25.522Z" fill="white" stroke="white" stroke-width="1.04" stroke-linecap="round" stroke-linejoin="round"/>
<path d="M0.719533 27.2312C0.811138 28.2568 1.05978 29.2693 1.45238 30.2554C6.46453 42.7994 35.569 52.227 70.5363 51.9115C104.666 51.5959 132.855 42.1156 138.338 29.9135C138.809 28.8616 139.11 27.7966 139.241 26.7052C139.28 26.3108 139.306 25.9163 139.306 25.5219C139.306 25.4693 139.306 25.4167 139.306 25.3641C139.005 11.045 108.37 0.35507 70.0914 0.696938C32.1404 1.03881 0.915831 12.0969 0.693359 26.2582C0.693359 26.3765 0.693359 26.4949 0.693359 26.6132C0.693359 26.8236 0.706446 27.0208 0.732619 27.2312H0.719533Z" stroke="white" stroke-width="1.04" stroke-linecap="round" stroke-linejoin="round"/>
<path d="M70.4712 44.2457C100.282 44.009 124.898 36.6851 129.701 27.2706C130.12 26.4554 130.381 25.6401 130.486 24.7986C130.525 24.4567 130.552 24.1017 130.539 23.7599C130.277 12.7149 102.546 3.55016 69.0971 3.81314C35.661 4.07612 9.17379 13.6747 9.43552 24.7329C9.43552 24.8906 9.4486 25.0484 9.46169 25.2062C9.54021 25.9951 9.74959 26.7709 10.1029 27.5467C14.4738 37.2242 39.9141 44.4955 70.4581 44.2588L70.4712 44.2457Z" stroke="white" stroke-width="0.41" stroke-miterlimit="10"/>
<path d="M70.4058 38.5787C96.0947 38.3814 117.295 32.5302 121.443 24.996C121.797 24.3517 122.032 23.6811 122.124 23.0105C122.163 22.7344 122.176 22.4583 122.176 22.1821C121.954 13.333 98.4111 6.33783 69.6076 6.56136C40.804 6.77174 17.6277 14.1219 17.8502 22.9579C17.8502 23.0894 17.8502 23.2077 17.8764 23.3392C17.9418 23.9704 18.125 24.6015 18.426 25.2063C22.195 32.951 44.1019 38.7759 70.4189 38.5787H70.4058Z" stroke="white" stroke-width="0.34" stroke-miterlimit="10"/>
<path d="M70.3268 33.2666C91.0951 33.122 108.239 28.7303 111.589 23.0895C111.877 22.6029 112.06 22.1033 112.138 21.6036C112.165 21.3933 112.178 21.1829 112.178 20.9725C111.994 14.3455 92.9665 9.11229 69.6725 9.27008C46.3784 9.42786 27.6384 14.9241 27.8216 21.551C27.8216 21.6431 27.8216 21.7483 27.8478 21.8403C27.9002 22.3137 28.0572 22.787 28.2928 23.2341C31.3419 29.0327 49.0611 33.3981 70.3268 33.2403V33.2666Z" stroke="white" stroke-width="0.27" stroke-miterlimit="10"/>
<path d="M69.817 12.7411C54.9506 12.8462 42.9895 16.5674 43.1073 21.0379C43.2251 25.5085 55.3694 29.0456 70.2357 28.9404C85.1021 28.8352 97.0632 25.1141 96.9454 20.6435C96.8276 16.1729 84.6833 12.6359 69.817 12.7411ZM71.8061 20.7224C71.793 21.3009 71.2565 21.748 70.6022 21.7348L69.0056 21.6954C68.3644 21.6822 67.854 21.2089 67.8671 20.6303L67.9849 16.3175C68.011 15.4234 68.8486 14.7134 69.8562 14.7397H70.1311C71.1387 14.766 71.937 15.5155 71.9108 16.4096L71.793 20.7224H71.8061Z" fill="white"/>
</g>
<defs>
<clipPath id="clip0_60_344">
<rect width="140" height="57" fill="white"/>
</clipPath>
</defs>
</svg>
