<svg width="78" height="78" viewBox="0 0 78 78" fill="none" xmlns="http://www.w3.org/2000/svg">
<g clip-path="url(#clip0_60_354)">
<path d="M39.1267 0.0065C39.0845 0.0065 39.0423 0 39 0C38.9837 0 38.9707 0 38.9545 0C38.948 0 38.9447 0 38.9383 0C17.4622 0.03575 0 17.5175 0 39C0 60.4825 17.4947 78 39 78C60.5052 78 78 60.5052 78 39C78 17.4947 60.5735 0.07475 39.1267 0.0065ZM70.8045 22.75H55.159C51.6912 14.0758 46.345 7.21175 43.0332 3.49375C55.1688 4.862 65.4615 12.3305 70.8078 22.75H70.8045ZM55.25 39C55.25 43.5728 54.301 47.9473 52.8742 52H25.1257C23.699 47.9473 22.75 43.5728 22.75 39C22.75 34.4272 23.699 30.0495 25.1225 26H52.8742C54.301 30.0527 55.25 34.4272 55.25 39ZM51.6035 55.25C47.6092 64.4735 41.4765 71.4675 39 74.061C36.5235 71.4675 30.3907 64.4735 26.3965 55.25H51.6003H51.6035ZM26.3933 22.75C30.3875 13.5167 36.5235 6.526 39 3.93575C41.4765 6.52925 47.6092 13.5232 51.6035 22.75H26.3933ZM34.9603 3.49375C31.629 7.23125 26.2892 14.1018 22.8377 22.75H7.1955C12.5417 12.3337 22.828 4.8685 34.9603 3.49375ZM5.733 26H21.671C20.3612 30.0527 19.5 34.4142 19.5 39C19.5 43.5858 20.3612 47.944 21.6742 52H5.733C4.15025 47.9635 3.25 43.589 3.25 39C3.25 34.411 4.15025 30.0365 5.733 26ZM7.1955 55.25H22.8442C26.312 63.9243 31.6583 70.7882 34.97 74.5062C22.8345 73.138 12.5417 65.6695 7.1955 55.25ZM43.03 74.5062C46.3418 70.7882 51.688 63.921 55.1558 55.25H70.8012C65.455 65.6695 55.1655 73.138 43.03 74.5062ZM72.267 52H56.3257C57.6387 47.944 58.5 43.5858 58.5 39C58.5 34.4142 57.6387 30.056 56.3257 26H72.267C73.8497 30.0365 74.75 34.411 74.75 39C74.75 43.589 73.8497 47.9635 72.267 52Z" fill="white"/>
</g>
<defs>
<clipPath id="clip0_60_354">
<rect width="78" height="78" fill="white"/>
</clipPath>
</defs>
</svg>
