<svg width="169" height="91" viewBox="0 0 169 91" fill="none" xmlns="http://www.w3.org/2000/svg">
<path d="M1.85 76.8549V76.2549C1.85 76.0715 1.83333 75.8965 1.8 75.7299C1.88333 75.5799 1.89167 75.1299 1.825 74.3799C1.79167 73.9799 1.75833 73.6549 1.725 73.4049C1.70833 73.1549 1.7 72.9799 1.7 72.8799V72.6799C1.7 72.6132 1.7 72.5465 1.7 72.4799C1.71667 72.3965 1.73333 72.3132 1.75 72.2299C1.76667 71.8465 1.79167 71.5882 1.825 71.4549C1.84167 71.4049 1.88333 71.3382 1.95 71.2549C2.01667 71.1549 2.05 71.0549 2.05 70.9549C2.05 70.2049 2.08333 69.4049 2.15 68.5549C2.23333 67.6882 2.28333 66.8799 2.3 66.1299C2.31667 65.5465 2.325 65.0799 2.325 64.7299C2.325 64.3799 2.33333 64.1632 2.35 64.0799C2.36667 63.8632 2.36667 63.6299 2.35 63.3799C2.35 63.1132 2.35 62.8632 2.35 62.6299C2.35 62.5799 2.34167 62.5465 2.325 62.5299L2.975 62.0049H5.15C5.38333 61.9715 5.55 61.9632 5.65 61.9799C5.75 61.9965 5.81667 62.0215 5.85 62.0549L6.4 62.4549C6.55 62.6382 6.675 62.7465 6.775 62.7799C6.89167 62.7965 6.98333 62.7715 7.05 62.7049C7.13333 62.6215 7.20833 62.5215 7.275 62.4049C7.34167 62.2715 7.40833 62.1465 7.475 62.0299L8.8 62.1049L10.775 62.9299C10.8417 62.9965 10.9 63.0632 10.95 63.1299C11 63.1799 11.05 63.2215 11.1 63.2549C11.1833 63.3382 11.2583 63.4132 11.325 63.4799C11.4083 63.5465 11.4667 63.5799 11.5 63.5799C11.5333 63.5799 11.6917 63.6215 11.975 63.7049C12.275 63.7882 12.5417 64.0215 12.775 64.4049C12.9583 64.4049 13.1417 64.4632 13.325 64.5799C13.525 64.6965 13.6917 64.8299 13.825 64.9799C13.9583 65.1132 14.0583 65.2465 14.125 65.3799C14.2083 65.4965 14.2333 65.5632 14.2 65.5799C13.9167 65.8465 13.825 66.0799 13.925 66.2799C14.0417 66.4799 14.2083 66.6215 14.425 66.7049C14.4917 66.9882 14.625 67.1882 14.825 67.3049C15.025 67.4049 15.175 67.4799 15.275 67.5299C15.275 67.5799 15.2917 67.8382 15.325 68.3049C15.3583 68.7549 15.4083 69.4132 15.475 70.2799C15.5083 70.7132 15.5417 71.0965 15.575 71.4299C15.6083 71.7465 15.6417 72.0132 15.675 72.2299C15.7083 72.3632 15.7333 72.4882 15.75 72.6049C15.7667 72.7049 15.7833 72.7965 15.8 72.8799C15.8167 72.9632 15.5333 73.4382 14.95 74.3049C14.35 75.1382 14.05 75.6965 14.05 75.9799H12.725C12.6583 75.9799 12.575 76.0132 12.475 76.0799C12.375 76.1299 12.275 76.1882 12.175 76.2549L11.775 76.5049C11.725 76.5215 11.675 76.5299 11.625 76.5299C11.575 76.5299 11.5167 76.5382 11.45 76.5549C11.35 76.5715 11.2167 76.5882 11.05 76.6049C10.9 76.6215 10.725 76.6465 10.525 76.6799C10.1083 76.7632 9.75833 76.8132 9.475 76.8299C9.19167 76.8465 8.95833 76.8382 8.775 76.8049C8.75833 76.5882 8.19167 76.6549 7.075 77.0049C6.79167 77.0882 6.5 77.1632 6.2 77.2299C5.9 77.2799 5.625 77.3215 5.375 77.3549C5.225 77.3882 5.075 77.4132 4.925 77.4299C4.79167 77.4465 4.65833 77.4632 4.525 77.4799L3.975 77.3549C3.875 77.3715 3.775 77.3965 3.675 77.4299C3.575 77.4465 3.50833 77.4549 3.475 77.4549C3.425 77.4549 3.35 77.4382 3.25 77.4049C3.16667 77.3715 3.09167 77.3549 3.025 77.3549C2.99167 77.3549 2.91667 77.3632 2.8 77.3799C2.7 77.3799 2.63333 77.3965 2.6 77.4299L1.85 76.8549ZM6.7 75.9049C6.86667 75.8382 7.04167 75.7465 7.225 75.6299C7.425 75.4965 7.59167 75.4549 7.725 75.5049H8.425C8.45833 75.5049 8.53333 75.4632 8.65 75.3799C8.76667 75.2799 8.85 75.2299 8.9 75.2299C8.96667 75.2299 9 75.2632 9 75.3299C9 75.3799 9.09167 75.4049 9.275 75.4049C9.34167 75.4049 9.5 75.3715 9.75 75.3049C10 75.2215 10.2667 75.1132 10.55 74.9799C10.85 74.8465 11.0833 74.7465 11.25 74.6799C11.4333 74.6132 11.5417 74.5715 11.575 74.5549C11.5917 74.5215 11.6 74.4799 11.6 74.4299C11.6167 74.3799 11.6417 74.3215 11.675 74.2549C11.7083 74.1549 11.7417 74.0382 11.775 73.9049C11.825 73.7715 11.8917 73.6132 11.975 73.4299C12.0917 73.0299 12.1833 72.7215 12.25 72.5049C12.3167 72.2882 12.35 72.1382 12.35 72.0549L11.55 69.1049C11.55 68.9882 11.5583 68.8965 11.575 68.8299C11.575 68.7465 11.575 68.6465 11.575 68.5299C11.5917 68.3965 11.6083 68.2382 11.625 68.0549C11.6917 67.3382 11.7333 66.9799 11.75 66.9799C11.7333 66.9632 11.675 66.8715 11.575 66.7049C11.4917 66.5382 11.3667 66.3132 11.2 66.0299C11.0333 65.7299 10.8917 65.4215 10.775 65.1049C10.675 64.7715 10.5917 64.6049 10.525 64.6049L8.55 63.3299H6.675C6.675 63.5299 6.63333 63.6465 6.55 63.6799C6.46667 63.6965 6.425 63.7215 6.425 63.7549V64.2049C6.425 64.3382 6.425 64.4965 6.425 64.6799C6.425 64.8632 6.41667 65.0715 6.4 65.3049V66.9549C6.11667 67.1049 5.95833 67.2799 5.925 67.4799C5.925 67.6299 5.85 67.8632 5.7 68.1799C5.66667 68.2132 5.65 68.2715 5.65 68.3549C5.65 68.5882 5.65 68.7549 5.65 68.8549C5.66667 68.9382 5.65 69.0882 5.6 69.3049C5.56667 69.3382 5.6 69.6299 5.7 70.1799C5.8 70.7632 5.85833 71.0632 5.875 71.0799C5.85833 71.1632 5.83333 71.2799 5.8 71.4299C5.78333 71.5799 5.75 71.7549 5.7 71.9549C5.65 72.1549 5.61667 72.3049 5.6 72.4049C5.58333 72.5049 5.575 72.5715 5.575 72.6049C5.575 72.8049 5.6 73.1632 5.65 73.6799C5.66667 73.9465 5.675 74.1799 5.675 74.3799C5.69167 74.5632 5.7 74.6965 5.7 74.7799C5.73333 74.9132 5.75833 75.0465 5.775 75.1799C5.80833 75.3132 5.84167 75.4549 5.875 75.6049L6.7 75.9049ZM29.9789 59.9549L30.1789 60.3799C30.1789 60.4299 30.1539 60.6882 30.1039 61.1549C30.0539 61.6049 29.9956 62.1632 29.9289 62.8299C29.8622 63.4965 29.7789 64.2215 29.6789 65.0049C29.5956 65.7715 29.5206 66.4882 29.4539 67.1549C29.3872 67.8215 29.3289 68.3965 29.2789 68.8799C29.2289 69.3465 29.2039 69.6049 29.2039 69.6549C29.2039 69.8715 29.1789 70.1132 29.1289 70.3799C29.0789 70.6299 29.0539 70.7965 29.0539 70.8799C29.0539 71.4299 29.0706 71.8549 29.1039 72.1549C29.1372 72.4382 29.1289 72.6965 29.0789 72.9299C29.0789 72.9799 29.0372 73.1465 28.9539 73.4299C28.8706 73.6965 28.7622 74.2132 28.6289 74.9799C28.5456 75.3632 28.4706 75.6465 28.4039 75.8299C28.3539 76.0132 28.3039 76.1465 28.2539 76.2299C28.2206 76.2965 28.1872 76.3382 28.1539 76.3549C28.1372 76.3549 28.1289 76.3632 28.1289 76.3799C27.8956 76.7299 27.6289 77.0465 27.3289 77.3299C27.0289 77.6132 26.7872 77.8465 26.6039 78.0299C26.4206 78.2299 26.2622 78.3882 26.1289 78.5049C26.0122 78.6382 25.9206 78.7382 25.8539 78.8049L23.4289 79.3299L21.6039 79.4049L21.0539 78.4549L21.0039 78.1299L21.1789 77.9799L22.7789 77.7799L23.3789 77.4799C23.5789 77.3965 23.7206 77.2882 23.8039 77.1549C23.9039 77.0215 24.0122 76.8799 24.1289 76.7299C24.3789 76.4132 24.6122 76.0965 24.8289 75.7799C25.0456 75.4632 25.1456 75.0382 25.1289 74.5049C25.0956 73.9549 25.1206 73.4882 25.2039 73.1049C25.2206 72.8882 25.2456 72.6882 25.2789 72.5049C25.2789 72.4215 25.2872 72.2882 25.3039 72.1049C25.3206 71.9049 25.3372 71.6965 25.3539 71.4799C25.3872 71.2632 25.4039 71.0549 25.4039 70.8549C25.4206 70.6382 25.4206 70.4632 25.4039 70.3299C25.3706 70.0632 25.3456 69.8882 25.3289 69.8049C25.3289 69.7215 25.3289 69.6549 25.3289 69.6049C25.3289 69.5549 25.3706 69.4549 25.4539 69.3049C25.5539 69.1549 25.6372 69.0215 25.7039 68.9049C25.7372 68.8215 25.7122 68.5049 25.6289 67.9549C25.5956 67.6715 25.5539 67.4465 25.5039 67.2799C25.4706 67.1132 25.4622 66.9965 25.4789 66.9299C25.5122 66.8965 25.5622 66.8549 25.6289 66.8049C25.7122 66.7549 25.7622 66.7049 25.7789 66.6549C25.6789 66.6049 25.6289 65.8382 25.6289 64.3549C25.6289 63.9715 25.6456 63.5965 25.6789 63.2299C25.7122 62.8632 25.7372 62.5299 25.7539 62.2299C25.7872 61.9299 25.8122 61.6799 25.8289 61.4799C25.8456 61.2632 25.8372 61.1299 25.8039 61.0799C25.9872 60.9965 26.0956 60.9049 26.1289 60.8049C26.1622 60.7049 26.1706 60.5632 26.1539 60.3799C26.2539 60.3465 26.4289 60.3132 26.6789 60.2799C26.9289 60.2465 27.2539 60.2215 27.6539 60.2049C28.3706 60.1549 28.9289 60.0549 29.3289 59.9049C29.3956 59.9215 29.4539 59.9299 29.5039 59.9299C29.5706 59.9299 29.6206 59.9299 29.6539 59.9299C29.7372 59.9465 29.8039 59.9549 29.8539 59.9549C29.9206 59.9549 29.9622 59.9549 29.9789 59.9549ZM37.4467 75.4799L40.2967 75.0549L43.0217 74.2549L43.6717 73.2049L43.3967 72.1299L42.7467 71.3299C42.5633 71.2132 42.3717 71.1049 42.1717 71.0049C41.9883 70.8882 41.7967 70.8049 41.5967 70.7549C41.4133 70.6882 41.2217 70.6632 41.0217 70.6799C40.8383 70.6799 40.655 70.7382 40.4717 70.8549L39.8467 71.3049L37.7717 70.3299L37.0217 68.4049L37.6717 65.1799L38.8217 63.6549C38.8717 63.7715 38.9717 63.8132 39.1217 63.7799C39.2717 63.7465 39.4217 63.6799 39.5717 63.5799C39.7217 63.4799 39.8467 63.3632 39.9467 63.2299C40.0467 63.0799 40.0717 62.9465 40.0217 62.8299C40.305 62.7465 40.63 62.6632 40.9967 62.5799C41.3633 62.4799 41.68 62.3382 41.9467 62.1549L45.1717 61.4799L45.6967 61.4299L46.1467 61.9549L45.7467 63.0299L44.8217 63.2799L43.6217 63.4049L41.7967 64.3299L40.9467 65.4299C40.68 65.6799 40.5467 65.9549 40.5467 66.2549C40.5633 66.5382 40.6383 66.8465 40.7717 67.1799C40.955 67.5632 41.0883 67.8132 41.1717 67.9299C41.2717 68.0299 41.3967 68.1215 41.5467 68.2049L43.0217 68.7049C43.1883 68.8382 43.3383 68.9465 43.4717 69.0299C43.6217 69.0965 43.7883 69.1382 43.9717 69.1549C44.155 69.1715 44.4133 69.1882 44.7467 69.2049C45.0967 69.2215 45.5383 69.2465 46.0717 69.2799C46.2217 69.5632 46.3967 69.8132 46.5967 70.0299C46.7967 70.2299 46.9883 70.4965 47.1717 70.8299L47.6717 71.9549L46.9217 74.4549L46.3217 75.1049L45.0967 76.8799H44.4717C44.255 76.8799 43.9883 76.8882 43.6717 76.9049C43.3717 76.9049 43.0133 76.9049 42.5967 76.9049C42.18 76.9049 41.8133 76.9465 41.4967 77.0299C41.18 77.1132 40.8967 77.2049 40.6467 77.3049C40.3967 77.3882 40.18 77.4632 39.9967 77.5299C39.8133 77.5965 39.6467 77.6215 39.4967 77.6049L38.5967 77.3299L37.0967 77.5799L36.5717 76.5049L36.7217 75.8799L37.4467 75.4799ZM63.9465 63.5799L62.2465 63.5549L60.8465 64.0299C60.7965 64.0299 60.6298 64.2965 60.3465 64.8299C60.2298 65.0965 60.0882 65.3882 59.9215 65.7049C59.7715 66.0215 59.6632 66.2215 59.5965 66.3049L59.0215 70.0549C58.9882 70.0549 58.8715 70.3382 58.6715 70.9049C58.5882 71.1882 58.5048 71.4215 58.4215 71.6049C58.3382 71.7715 58.2715 71.9049 58.2215 72.0049C58.2215 72.1215 58.3798 72.4382 58.6965 72.9549L59.2965 72.6049L59.8465 73.6799L59.5215 74.3049C59.5715 74.3882 59.6132 74.4632 59.6465 74.5299C59.6798 74.5799 59.7132 74.6299 59.7465 74.6799L59.8215 74.8299C59.8215 74.8799 59.9215 75.0132 60.1215 75.2299C60.3048 75.4632 60.4548 75.5799 60.5715 75.5799C60.7548 75.5799 60.8882 75.5465 60.9715 75.4799C61.0715 75.4132 61.1465 75.3799 61.1965 75.3799C61.2465 75.3799 61.3048 75.4132 61.3715 75.4799C61.4382 75.5299 61.4965 75.5632 61.5465 75.5799C62.3298 75.6799 63.0132 75.5049 63.5965 75.0549C63.7798 75.0215 64.0215 74.9882 64.3215 74.9549C64.6215 74.9215 64.8715 74.7965 65.0715 74.5799C65.1382 74.5632 65.2215 74.5132 65.3215 74.4299C65.4215 74.3465 65.5298 74.2549 65.6465 74.1549C65.7632 74.0382 65.8882 73.9215 66.0215 73.8049C66.1548 73.6882 66.2965 73.5882 66.4465 73.5049C66.5298 73.4549 66.5965 73.4965 66.6465 73.6299C66.7132 73.7632 66.7798 73.8132 66.8465 73.7799L67.0965 74.0799L66.6715 75.3549L65.7215 76.1049L64.3715 76.4799C63.9548 76.6132 63.5048 76.7549 63.0215 76.9049C62.5548 77.0549 62.2132 77.1465 61.9965 77.1799C61.8132 77.1965 61.6132 77.2382 61.3965 77.3049C61.1798 77.3549 60.9715 77.4132 60.7715 77.4799C60.5715 77.5299 60.3965 77.5799 60.2465 77.6299C60.0965 77.6632 60.0048 77.6799 59.9715 77.6799C59.3382 77.6799 58.8798 77.6882 58.5965 77.7049C58.3132 77.7049 58.1048 77.7049 57.9715 77.7049L55.7215 76.0549C55.6882 75.7382 55.4382 75.2382 54.9715 74.5549C54.5215 73.9382 54.2965 73.5549 54.2965 73.4049L54.5215 71.3549C54.5715 71.0049 54.6132 70.6465 54.6465 70.2799C54.6798 69.8965 54.7048 69.5465 54.7215 69.2299C54.7382 68.9132 54.7465 68.6382 54.7465 68.4049C54.7632 68.1715 54.7715 68.0299 54.7715 67.9799C54.9048 67.9132 55.0965 67.7549 55.3465 67.5049C55.5965 67.2382 55.8215 66.8715 56.0215 66.4049C56.4382 65.5382 56.5882 64.7715 56.4715 64.1049C56.5548 64.0715 56.7882 64.0132 57.1715 63.9299C57.5548 63.8465 57.9465 63.7215 58.3465 63.5549C58.7465 63.4049 59.0548 63.2882 59.2715 63.2049C59.4882 63.1215 59.6132 63.0715 59.6465 63.0549C59.6632 63.0382 59.7298 63.0132 59.8465 62.9799C59.9798 62.9465 60.1215 62.9215 60.2715 62.9049C60.4382 62.8715 60.5965 62.8465 60.7465 62.8299C60.8965 62.7965 61.0048 62.7799 61.0715 62.7799L61.8465 62.0299L64.0965 62.0049L64.6465 62.3549L64.4965 63.1549L63.9465 63.5799ZM86.4582 66.1799C86.5249 66.5465 86.5499 66.9132 86.5332 67.2799C86.5332 67.6299 86.5249 67.9715 86.5082 68.3049C86.5082 68.6382 86.5165 68.9632 86.5332 69.2799C86.5665 69.5799 86.6499 69.8632 86.7832 70.1299C86.7332 70.2132 86.6332 70.3799 86.4832 70.6299C86.3499 70.8799 86.2499 71.1382 86.1832 71.4049C86.1165 71.6549 86.1249 71.8465 86.2082 71.9799C86.2915 72.1132 86.3249 72.1965 86.3082 72.2299C86.2915 72.2799 86.2749 72.3382 86.2582 72.4049C86.2415 72.4549 86.2165 72.5215 86.1832 72.6049C86.1332 72.7382 86.0499 72.9049 85.9332 73.1049C85.8332 73.3049 85.6915 73.5382 85.5082 73.8049C85.3249 74.0715 85.1999 74.3049 85.1332 74.5049C85.0832 74.6882 85.0499 74.8549 85.0332 75.0049C85.0332 75.1549 85.0332 75.2882 85.0332 75.4049C85.0332 75.5215 84.9999 75.6299 84.9332 75.7299C84.8999 75.7632 84.8249 75.7882 84.7082 75.8049C84.5915 75.8049 84.4499 75.8215 84.2832 75.8549C84.1165 75.8882 83.9332 75.9465 83.7332 76.0299C83.5499 76.0965 83.3749 76.2049 83.2082 76.3549C82.8915 76.4215 82.6415 76.5132 82.4582 76.6299C82.2915 76.7299 82.0332 76.7965 81.6832 76.8299C81.2999 76.9132 81.0415 77.0215 80.9082 77.1549C80.7749 77.2715 80.6832 77.3299 80.6332 77.3299C80.1499 77.3299 79.7749 77.3465 79.5082 77.3799C79.2415 77.3965 79.0665 77.4215 78.9832 77.4549L78.7332 77.5049C78.6832 77.5215 78.5749 77.5299 78.4082 77.5299L74.9082 76.4549L73.1332 74.4549C73.1332 73.9382 73.1249 73.5049 73.1082 73.1549C73.1082 72.7882 73.0999 72.4715 73.0832 72.2049C73.0832 71.9215 73.0832 71.6549 73.0832 71.4049C73.0832 71.1549 73.0915 70.8799 73.1082 70.5799C73.1749 70.5299 73.2832 70.3799 73.4332 70.1299C73.5999 69.8632 73.7665 69.5715 73.9332 69.2549C74.0999 68.9215 74.2582 68.5799 74.4082 68.2299C74.5582 67.8799 74.6749 67.5882 74.7582 67.3549C74.8249 67.1049 74.8832 66.9132 74.9332 66.7799C74.9832 66.6299 75.0249 66.5049 75.0582 66.4049C75.1082 66.3049 75.1499 66.2049 75.1832 66.1049C75.2165 66.0049 75.2499 65.8799 75.2832 65.7299L75.9332 65.0799C75.9332 65.0632 76.0249 64.9465 76.2082 64.7299C76.4082 64.4965 76.6332 64.2465 76.8832 63.9799C77.1499 63.6965 77.4249 63.4382 77.7082 63.2049C77.9915 62.9715 78.2249 62.8465 78.4082 62.8299L79.6332 62.7049L80.1332 62.7549C80.1999 62.7715 80.2582 62.7799 80.3082 62.7799C80.3749 62.7799 80.4332 62.7799 80.4832 62.7799H80.6582L81.5082 63.5549C81.5249 63.7382 81.5665 63.8882 81.6332 64.0049C81.7165 64.1215 81.8832 64.2132 82.1332 64.2799C82.3999 64.3465 82.5415 64.3799 82.5582 64.3799C82.5749 64.3965 82.5749 64.4132 82.5582 64.4299C82.8749 64.4299 83.2082 64.3465 83.5582 64.1799C83.9082 63.9965 84.2499 63.9049 84.5832 63.9049C84.6665 63.9049 84.7582 63.9465 84.8582 64.0299C84.9582 64.1132 85.0582 64.2132 85.1582 64.3299L85.4582 64.6549C85.5582 64.7715 85.6499 64.8382 85.7332 64.8549C85.6999 65.1715 85.7082 65.4049 85.7582 65.5549C85.8249 65.6882 85.8999 65.7882 85.9832 65.8549C86.0832 65.9049 86.1749 65.9465 86.2582 65.9799C86.3582 66.0132 86.4249 66.0799 86.4582 66.1799ZM82.2582 73.7799C82.3582 73.7132 82.4415 73.6715 82.5082 73.6549C82.5749 73.6215 82.6332 73.5715 82.6832 73.5049C82.7499 73.4382 82.8082 73.3299 82.8582 73.1799C82.9249 73.0132 82.9999 72.7632 83.0832 72.4299C83.1832 72.0965 83.2665 71.8215 83.3332 71.6049C83.3999 71.3715 83.4499 71.1799 83.4832 71.0299C83.5165 70.8632 83.5415 70.7132 83.5582 70.5799C83.5749 70.4465 83.5832 70.3049 83.5832 70.1549C83.5832 69.8715 83.5999 69.5549 83.6332 69.2049C83.6665 68.8382 83.6332 68.4549 83.5332 68.0549C83.4499 67.7715 83.3915 67.4549 83.3582 67.1049C83.3415 66.7549 83.3165 66.4549 83.2832 66.2049C83.1165 66.1049 83.0165 65.9465 82.9832 65.7299C82.9499 65.5132 82.8415 65.3049 82.6582 65.1049C82.5582 65.0215 82.4499 64.9715 82.3332 64.9549C82.2332 64.9382 82.1332 64.9382 82.0332 64.9549C81.9499 64.9715 81.8665 64.9965 81.7832 65.0299C81.7165 65.0632 81.6665 65.0799 81.6332 65.0799C81.5832 65.0799 81.4832 65.0715 81.3332 65.0549C81.1832 65.0215 81.0082 65.0132 80.8082 65.0299C80.6249 65.0299 80.4332 65.0632 80.2332 65.1299C80.0499 65.1799 79.8999 65.2882 79.7832 65.4549C79.2665 66.0382 78.9665 66.4049 78.8832 66.5549C78.6499 66.9882 78.4415 67.4049 78.2582 67.8049C78.0915 68.2049 77.9415 68.5049 77.8082 68.7049C77.7415 68.8715 77.5999 69.1215 77.3832 69.4549C77.1832 69.7882 77.0832 70.2632 77.0832 70.8799C77.0999 70.9299 77.0749 71.0549 77.0082 71.2549C76.9415 71.4382 76.8749 71.6632 76.8082 71.9299C76.7582 72.1965 76.7165 72.4715 76.6832 72.7549C76.6499 73.0215 76.6749 73.2632 76.7582 73.4799C76.8249 73.6465 76.9665 73.9132 77.1832 74.2799C77.3999 74.6299 77.7749 75.0049 78.3082 75.4049C78.6415 75.6215 78.8665 75.8465 78.9832 76.0799C79.0999 76.2965 79.1999 76.4049 79.2832 76.4049C79.3665 76.4049 79.4999 76.4049 79.6832 76.4049C79.8665 76.3882 79.9999 76.4215 80.0832 76.5049L82.2582 73.7799ZM101.471 72.8799C101.538 72.8465 101.588 72.7715 101.621 72.6549C101.655 72.5215 101.68 72.3799 101.696 72.2299C101.73 72.0799 101.755 71.9299 101.771 71.7799C101.805 71.6132 101.855 71.4799 101.921 71.3799C102.121 71.0799 102.288 70.8299 102.421 70.6299C102.571 70.4132 102.696 70.2382 102.796 70.1049C102.913 69.9549 103.005 69.8382 103.071 69.7549C103.138 69.6549 103.188 69.5549 103.221 69.4549C103.438 69.2882 103.555 69.1382 103.571 69.0049C103.605 68.8715 103.68 68.6882 103.796 68.4549C103.88 68.2882 103.971 68.0715 104.071 67.8049C104.171 67.5215 104.23 67.3549 104.246 67.3049C104.296 67.1549 104.38 66.9882 104.496 66.8049C104.63 66.6049 104.755 66.3965 104.871 66.1799C105.005 65.9465 105.121 65.7049 105.221 65.4549C105.321 65.1882 105.371 64.9132 105.371 64.6299C105.388 64.2632 105.396 63.9465 105.396 63.6799C105.413 63.3965 105.438 63.1549 105.471 62.9549L106.246 62.7799L107.121 63.1799C107.121 63.4465 107.205 63.6799 107.371 63.8799C107.555 64.0632 107.655 64.2299 107.671 64.3799C107.671 64.5132 107.571 64.7465 107.371 65.0799C107.171 65.3965 107.021 65.7882 106.921 66.2549C106.905 66.3882 106.805 66.5632 106.621 66.7799C106.438 66.9799 106.338 67.2215 106.321 67.5049C106.321 67.7882 106.263 68.0799 106.146 68.3799C106.03 68.6632 105.946 68.8632 105.896 68.9799C105.746 69.3465 105.521 69.8382 105.221 70.4549C104.938 71.0715 104.58 71.8299 104.146 72.7299C103.713 73.6299 103.355 74.3299 103.071 74.8299C102.788 75.3299 102.621 75.6382 102.571 75.7549L102.371 76.2049L102.171 76.6049L101.196 77.2799L99.5715 77.3049L99.0715 77.5549L98.1715 76.5299C98.0715 76.2799 97.9215 76.0049 97.7215 75.7049C97.5382 75.4049 97.3632 75.0549 97.1965 74.6549L96.6215 73.1799C96.7715 72.8299 96.8465 72.5549 96.8465 72.3549C96.8632 72.1549 96.8298 72.0049 96.7465 71.9049C96.6632 71.8049 96.5465 71.7465 96.3965 71.7299C96.2465 71.6965 96.0882 71.6715 95.9215 71.6549C95.8215 71.6382 95.7132 71.5382 95.5965 71.3549C95.4798 71.1549 95.3632 71.0215 95.2465 70.9549L95.1965 70.3799L94.5465 69.3299L94.3465 67.1799C94.3798 67.0632 94.3632 66.9715 94.2965 66.9049C94.2465 66.8382 94.1715 66.7882 94.0715 66.7549L93.7715 66.6299C93.6548 66.5799 93.5882 66.5215 93.5715 66.4549C93.4382 66.1882 93.3298 65.9465 93.2465 65.7299C93.1798 65.4965 93.1215 65.2882 93.0715 65.1049C93.0215 64.9215 92.9632 64.7549 92.8965 64.6049C92.8465 64.4549 92.7715 64.3299 92.6715 64.2299L92.6965 63.2049C92.8965 63.0882 93.1632 63.0132 93.4965 62.9799C93.8798 62.9465 94.1715 62.8132 94.3715 62.5799L95.1965 62.3299C95.3965 62.4965 95.5965 62.6465 95.7965 62.7799C95.9965 62.9132 96.1465 63.0382 96.2465 63.1549C96.5132 63.4715 96.8632 63.7299 97.2965 63.9299C97.3132 64.0132 97.3632 64.2049 97.4465 64.5049C97.5465 64.8049 97.6548 65.1632 97.7715 65.5799C97.9048 65.9965 98.0548 66.4549 98.2215 66.9549C98.3882 67.4382 98.5465 67.9132 98.6965 68.3799C98.8632 68.8465 99.0215 69.2799 99.1715 69.6799C99.3382 70.0632 99.4798 70.3715 99.5965 70.6049C99.6465 70.7049 99.7048 70.8632 99.7715 71.0799C99.8382 71.2965 99.9048 71.5215 99.9715 71.7549C100.038 71.9715 100.096 72.1799 100.146 72.3799C100.213 72.5799 100.263 72.7132 100.296 72.7799C100.413 72.7799 100.513 72.7965 100.596 72.8299C100.68 72.8632 100.763 72.8965 100.846 72.9299C100.93 72.9632 101.021 72.9799 101.121 72.9799C101.221 72.9799 101.338 72.9465 101.471 72.8799ZM125.874 68.9299C125.874 68.9799 125.858 69.0632 125.824 69.1799C125.808 69.2799 125.783 69.3882 125.749 69.5049C125.716 69.6215 125.683 69.7299 125.649 69.8299C125.633 69.9299 125.624 70.0049 125.624 70.0549C125.041 70.1049 124.658 70.1549 124.474 70.2049C124.308 70.2382 124.208 70.2549 124.174 70.2549H122.499C122.249 70.2549 122.058 70.2549 121.924 70.2549C121.791 70.2382 121.683 70.2299 121.599 70.2299C121.533 70.2299 121.483 70.2382 121.449 70.2549C121.416 70.2549 121.366 70.2632 121.299 70.2799L120.774 70.6049L119.999 70.2549C119.983 70.1715 119.899 70.0799 119.749 69.9799C119.616 69.8799 119.524 69.7632 119.474 69.6299L120.274 68.5299C120.608 68.5299 120.783 68.5382 120.799 68.5549C120.833 68.5549 120.841 68.5465 120.824 68.5299C120.824 68.5132 120.874 68.4965 120.974 68.4799C121.074 68.4465 121.191 68.4215 121.324 68.4049L121.699 68.3299C121.816 68.3132 122.358 68.3382 123.324 68.4049C123.341 68.4049 123.458 68.4465 123.674 68.5299C123.758 68.5632 123.966 68.5549 124.299 68.5049C124.649 68.4382 125.041 68.4049 125.474 68.4049L125.874 68.9299ZM125.974 75.7299C125.941 75.8299 125.916 75.9465 125.899 76.0799C125.899 76.2132 125.916 76.3049 125.949 76.3549C125.916 76.3882 125.816 76.4299 125.649 76.4799C125.483 76.5299 125.249 76.6132 124.949 76.7299C124.633 76.8132 124.333 76.8299 124.049 76.7799C123.766 76.7299 123.491 76.7382 123.224 76.8049C122.408 76.8049 121.566 76.9299 120.699 77.1799C120.466 77.2465 120.266 77.3049 120.099 77.3549C119.933 77.4049 119.791 77.4465 119.674 77.4799C119.608 77.5132 119.541 77.5382 119.474 77.5549C119.424 77.5549 119.374 77.5632 119.324 77.5799L117.374 77.6549C117.224 77.7049 117.066 77.7215 116.899 77.7049C116.733 77.6715 116.566 77.6382 116.399 77.6049C116.233 77.5549 116.083 77.5049 115.949 77.4549C115.816 77.4049 115.708 77.3799 115.624 77.3799C115.541 77.3799 115.399 77.3882 115.199 77.4049C114.999 77.4049 114.816 77.4049 114.649 77.4049C114.483 77.2882 114.333 77.1715 114.199 77.0549C114.066 76.9215 114.058 76.6965 114.174 76.3799C114.208 76.2132 114.266 76.0465 114.349 75.8799C114.449 75.6965 114.483 75.5132 114.449 75.3299C114.433 75.2632 114.391 75.1549 114.324 75.0049C114.274 74.8549 114.233 74.6965 114.199 74.5299C114.183 74.3632 114.183 74.1965 114.199 74.0299C114.233 73.8632 114.324 73.7215 114.474 73.6049C114.608 73.3882 114.666 73.1882 114.649 73.0049C114.633 72.8049 114.558 72.5965 114.424 72.3799C114.524 72.2632 114.583 72.1299 114.599 71.9799C114.633 71.8132 114.641 71.6549 114.624 71.5049C114.608 71.3549 114.574 71.2215 114.524 71.1049C114.491 70.9882 114.458 70.9049 114.424 70.8549C114.474 70.6215 114.524 70.3132 114.574 69.9299C114.624 69.5299 114.666 69.1299 114.699 68.7299C114.749 68.3132 114.783 67.9299 114.799 67.5799C114.816 67.2299 114.816 66.9715 114.799 66.8049C114.783 66.5882 114.799 66.3632 114.849 66.1299C114.899 65.8965 114.958 65.6632 115.024 65.4299C115.091 65.1799 115.141 64.9382 115.174 64.7049C115.208 64.4715 115.199 64.2549 115.149 64.0549L115.199 63.9049C115.233 63.8715 115.174 63.6132 115.024 63.1299L115.424 62.2549H115.449C115.783 62.2382 116.124 62.2215 116.474 62.2049C116.824 62.1882 117.141 62.1715 117.424 62.1549C117.724 62.1382 117.966 62.1299 118.149 62.1299C118.349 62.1132 118.458 62.1049 118.474 62.1049H121.924C122.041 62.1049 122.191 62.1632 122.374 62.2799C122.574 62.3799 123.241 62.4299 124.374 62.4299C124.391 62.4965 124.408 62.5632 124.424 62.6299C124.441 62.6965 124.458 62.7632 124.474 62.8299C124.524 63.1299 124.583 63.3632 124.649 63.5299L124.499 63.7799C124.249 63.7965 124.058 63.8049 123.924 63.8049C123.791 63.8049 123.691 63.8049 123.624 63.8049C123.574 63.7882 123.541 63.7799 123.524 63.7799C123.508 63.7632 123.491 63.7549 123.474 63.7549L121.524 63.5049C121.041 63.4049 120.441 63.4632 119.724 63.6799C119.408 63.7632 119.149 63.7882 118.949 63.7549C118.749 63.7049 118.616 63.6965 118.549 63.7299C118.349 63.6632 118.183 63.6632 118.049 63.7299C117.916 63.7965 117.874 63.9215 117.924 64.1049C117.974 64.2715 118.033 64.3715 118.099 64.4049C118.166 64.4382 118.216 64.5049 118.249 64.6049C118.216 64.6549 118.224 64.7299 118.274 64.8299C118.341 64.9132 118.416 64.9965 118.499 65.0799C118.599 65.1799 118.699 65.2465 118.799 65.2799C118.899 65.2965 118.949 65.3132 118.949 65.3299C118.949 65.3632 118.908 65.5382 118.824 65.8549C118.741 66.1549 118.674 66.5215 118.624 66.9549C118.574 67.3882 118.558 67.8549 118.574 68.3549C118.608 68.8549 118.733 69.3215 118.949 69.7549C118.866 69.9382 118.791 70.2882 118.724 70.8049C118.658 71.3049 118.599 71.8215 118.549 72.3549C118.516 72.8882 118.491 73.3715 118.474 73.8049C118.458 74.2215 118.449 74.4465 118.449 74.4799C118.433 74.4799 118.408 74.5132 118.374 74.5799C118.358 74.6299 118.333 74.6882 118.299 74.7549C118.266 74.8215 118.224 74.8799 118.174 74.9299C118.124 74.9632 118.066 74.9632 117.999 74.9299V75.1549C117.999 75.1549 118.049 75.1549 118.149 75.1549H118.249C118.233 75.2382 118.224 75.3549 118.224 75.5049C118.224 75.6549 118.216 75.7799 118.199 75.8799L120.099 75.6299C120.433 75.6632 120.816 75.6715 121.249 75.6549C121.699 75.6382 122.199 75.5799 122.749 75.4799C123.299 75.3965 123.749 75.3715 124.099 75.4049C124.449 75.4382 124.708 75.3799 124.874 75.2299L125.499 75.2049L125.974 75.7299ZM136.057 77.2549L135.757 77.3549C135.524 77.4382 135.249 77.4965 134.932 77.5299C134.632 77.5465 134.44 77.5549 134.357 77.5549C134.307 77.5549 134.19 77.5465 134.007 77.5299C133.84 77.4965 133.715 77.4799 133.632 77.4799C133.582 77.4799 133.515 77.5215 133.432 77.6049L132.307 77.2049C132.307 77.1215 132.307 77.0465 132.307 76.9799C132.324 76.9132 132.34 76.8382 132.357 76.7549C132.39 76.5215 132.415 76.3049 132.432 76.1049C132.465 75.8882 132.465 75.6882 132.432 75.5049C132.565 75.3715 132.582 74.9632 132.482 74.2799C132.382 73.5799 132.332 73.1382 132.332 72.9549C132.332 72.9049 132.349 72.7715 132.382 72.5549C132.415 72.3382 132.449 72.1465 132.482 71.9799C132.499 71.9299 132.532 71.8632 132.582 71.7799C132.649 71.6965 132.682 71.6049 132.682 71.5049C132.649 71.0215 132.665 70.6299 132.732 70.3299C132.815 70.0132 132.84 69.6965 132.807 69.3799C132.79 69.2965 132.799 69.2132 132.832 69.1299C132.865 69.0465 132.882 68.9382 132.882 68.8049V67.9799C132.882 67.7465 132.882 67.4882 132.882 67.2049C132.882 66.9049 132.89 66.5632 132.907 66.1799C132.924 65.4299 132.932 64.9299 132.932 64.6799C132.949 64.4299 132.974 64.2549 133.007 64.1549C133.024 63.9882 133.065 63.8549 133.132 63.7549C133.215 63.6549 133.257 63.4882 133.257 63.2549C133.257 63.2382 133.224 63.1882 133.157 63.1049C133.107 63.0215 133.04 62.9132 132.957 62.7799C132.907 62.7132 132.874 62.6299 132.857 62.5299C132.84 62.4299 132.832 62.3382 132.832 62.2549C132.849 62.1549 132.857 62.0715 132.857 62.0049C132.874 61.9382 132.882 61.7465 132.882 61.4299C133.332 61.2965 133.79 61.2299 134.257 61.2299C134.724 61.2299 135.099 61.2132 135.382 61.1799C135.482 61.1632 135.557 61.1465 135.607 61.1299C135.674 61.1132 135.732 61.1049 135.782 61.1049C135.832 61.0882 135.89 61.0799 135.957 61.0799C136.04 61.0632 136.157 61.0549 136.307 61.0549C136.374 61.2215 136.465 61.4049 136.582 61.6049C136.699 61.8049 136.79 61.9882 136.857 62.1549C137.074 62.4549 137.282 62.5965 137.482 62.5799C137.682 62.5632 137.865 62.4882 138.032 62.3549C138.215 62.2215 138.365 62.0799 138.482 61.9299C138.599 61.7632 138.674 61.6799 138.707 61.6799L141.532 61.7049L143.682 63.1799C143.765 63.2632 143.874 63.3632 144.007 63.4799C144.14 63.5799 144.282 63.7215 144.432 63.9049C144.765 64.2549 145.015 64.4215 145.182 64.4049L145.782 65.2799C145.749 65.3299 145.674 65.4799 145.557 65.7299C145.457 65.9632 145.307 66.2965 145.107 66.7299C144.724 67.6299 144.532 68.3299 144.532 68.8299L144.032 69.1299C143.699 69.2632 143.532 69.6049 143.532 70.1549C143.249 70.1215 142.782 70.2299 142.132 70.4799C141.949 70.5632 141.749 70.6215 141.532 70.6549C141.315 70.6715 141.115 70.6882 140.932 70.7049C140.815 70.7215 140.699 70.7299 140.582 70.7299C140.482 70.7299 140.374 70.7299 140.257 70.7299L139.982 71.3549C139.782 71.2049 139.557 71.1049 139.307 71.0549C139.057 71.0049 138.807 70.9882 138.557 71.0049C138.324 71.0215 138.099 71.0549 137.882 71.1049C137.665 71.1549 137.482 71.2132 137.332 71.2799C136.782 71.4799 136.499 71.5799 136.482 71.5799H136.332C136.349 71.5965 136.357 71.6215 136.357 71.6549C136.324 71.8215 136.265 72.0215 136.182 72.2549C136.115 72.4715 136.082 72.6215 136.082 72.7049C136.082 72.8049 136.09 72.9465 136.107 73.1299C136.124 73.2965 136.14 73.5215 136.157 73.8049C136.174 74.0715 136.182 74.2965 136.182 74.4799C136.199 74.6632 136.207 74.8049 136.207 74.9049L136.307 75.5799C136.34 75.7132 136.365 75.8465 136.382 75.9799C136.399 76.0965 136.424 76.2215 136.457 76.3549L136.057 77.2549ZM136.982 63.8549C136.982 63.9882 136.982 64.1465 136.982 64.3299C136.999 64.5132 137.015 64.7215 137.032 64.9549C137.115 65.9882 137.14 66.6049 137.107 66.8049C136.774 67.0049 136.574 67.3049 136.507 67.7049C136.457 67.9215 136.407 68.1299 136.357 68.3299C136.307 68.5132 136.249 68.6715 136.182 68.8049L136.132 68.8549C136.132 69.0382 136.132 69.1715 136.132 69.2549C136.149 69.3382 136.157 69.4382 136.157 69.5549L136.632 69.8799L137.107 69.7549C137.107 70.1215 137.557 70.1132 138.457 69.7299C139.34 69.3632 139.84 69.1799 139.957 69.1799H141.007C141.14 68.9965 141.299 68.8049 141.482 68.6049C141.665 68.3882 141.757 68.2549 141.757 68.2049L142.082 66.3799L141.932 65.7549L138.607 63.3799H137.507L136.982 63.8549ZM144.232 77.3049C144.199 77.1549 144.099 77.0549 143.932 77.0049C143.865 76.9382 143.84 76.8465 143.857 76.7299C143.874 76.6132 143.857 76.5382 143.807 76.5049C143.79 76.4715 143.774 76.4549 143.757 76.4549C143.74 76.4549 143.715 76.4465 143.682 76.4299C143.665 76.3965 143.615 76.3382 143.532 76.2549C143.482 76.1882 143.424 76.1215 143.357 76.0549C143.29 75.9715 143.215 75.8632 143.132 75.7299C142.949 75.4965 142.807 75.3132 142.707 75.1799C142.607 75.0299 142.532 74.9382 142.482 74.9049C142.415 74.8715 142.315 74.8049 142.182 74.7049C142.049 74.6049 141.957 74.5465 141.907 74.5299C141.857 74.4799 141.815 74.4215 141.782 74.3549C141.749 74.2882 141.715 74.2382 141.682 74.2049C141.649 74.1715 141.607 74.0549 141.557 73.8549C141.507 73.6549 141.457 73.4799 141.407 73.3299C141.224 73.1632 140.949 72.8632 140.582 72.4299C140.465 72.3132 140.399 72.2382 140.382 72.2049L140.707 71.7299L141.907 72.3299C141.924 72.3465 142.007 72.3465 142.157 72.3299C142.324 72.3132 142.499 72.3049 142.682 72.3049C142.865 72.2882 143.04 72.2882 143.207 72.3049C143.39 72.3215 143.507 72.3715 143.557 72.4549C143.624 72.5382 143.707 72.5965 143.807 72.6299C143.907 72.6632 144.007 72.6965 144.107 72.7299C144.224 72.7465 144.315 72.7632 144.382 72.7799C144.465 72.7965 144.515 72.8299 144.532 72.8799L145.032 73.8049C145.099 73.8882 145.215 74.0299 145.382 74.2299C145.565 74.4132 145.807 74.6715 146.107 75.0049C146.707 75.7049 147.015 76.0632 147.032 76.0799L146.957 76.9549L144.957 77.5299L144.232 77.3049ZM164.725 61.6299L165.8 62.0549C165.8 62.3049 165.792 62.5299 165.775 62.7299C165.758 62.9132 165.725 63.0882 165.675 63.2549C165.642 63.3882 165.55 63.6132 165.4 63.9299C165.267 64.2299 165.158 64.6215 165.075 65.1049C165.058 65.2215 165 65.3465 164.9 65.4799C164.8 65.6132 164.683 65.7465 164.55 65.8799C164.433 66.0132 164.308 66.1549 164.175 66.3049C164.042 66.4382 163.933 66.5715 163.85 66.7049C163.533 67.3715 163.258 67.9132 163.025 68.3299C162.792 68.7465 162.625 69.0882 162.525 69.3549L162.375 69.7299L162.25 70.4299V71.2299C162.25 71.3132 162.25 71.4049 162.25 71.5049C162.25 71.6049 162.258 71.7132 162.275 71.8299C162.275 72.0632 162.25 72.3299 162.2 72.6299C162.167 72.9132 162.117 73.2049 162.05 73.5049C162 73.7882 161.95 74.0549 161.9 74.3049C161.867 74.5382 161.85 74.7299 161.85 74.8799L162.15 76.3549L161.9 77.0549L159.175 77.6799H159C158.933 77.6799 158.85 77.6882 158.75 77.7049C158.667 77.7049 158.567 77.7049 158.45 77.7049H158.15L157.35 76.9799C157.45 76.8799 157.5 76.6382 157.5 76.2549C157.5 76.0882 157.508 75.9715 157.525 75.9049C157.558 75.8382 157.542 75.7215 157.475 75.5549C157.458 75.4549 157.467 75.2549 157.5 74.9549C157.533 74.6549 157.592 74.2465 157.675 73.7299C157.708 73.4632 157.725 73.1965 157.725 72.9299C157.742 72.6465 157.75 72.3965 157.75 72.1799C157.75 71.9465 157.733 71.7632 157.7 71.6299C157.683 71.4799 157.65 71.4049 157.6 71.4049C157.567 71.3715 157.533 71.3299 157.5 71.2799C157.483 71.2299 157.458 71.1799 157.425 71.1299C157.375 71.0465 157.308 70.9382 157.225 70.8049C157.142 70.6715 157.05 70.5132 156.95 70.3299C156.767 70.0132 156.617 69.7965 156.5 69.6799C156.4 69.5632 156.3 69.4799 156.2 69.4299C156.117 69.3632 156.017 69.3049 155.9 69.2549C155.783 69.1882 155.625 69.0549 155.425 68.8549C155.242 68.1382 154.925 67.4632 154.475 66.8299C154.042 66.1965 153.567 65.5882 153.05 65.0049C152.7 64.6215 152.442 64.2882 152.275 64.0049C152.125 63.7215 151.933 63.4882 151.7 63.3049L151.6 62.1799C151.75 62.0799 151.917 62.0132 152.1 61.9799C152.183 61.9632 152.308 61.9299 152.475 61.8799C152.658 61.8132 152.842 61.7465 153.025 61.6799C153.225 61.5965 153.4 61.5132 153.55 61.4299C153.7 61.3465 153.792 61.2632 153.825 61.1799L154.675 61.2049C154.825 61.3382 154.95 61.4549 155.05 61.5549C155.167 61.6549 155.267 61.7632 155.35 61.8799C155.633 62.2299 155.975 62.4799 156.375 62.6299C156.375 62.8965 156.425 63.1382 156.525 63.3549C156.642 63.5549 156.742 63.7299 156.825 63.8799C156.942 64.0299 157.067 64.1382 157.2 64.2049C157.35 64.2549 157.475 64.4299 157.575 64.7299C157.575 64.7632 157.558 64.8299 157.525 64.9299C157.492 65.0299 157.442 65.1382 157.375 65.2549C157.325 65.3549 157.267 65.4549 157.2 65.5549C157.15 65.6382 157.1 65.6799 157.05 65.6799C157 65.6799 157 65.6965 157.05 65.7299C157.117 65.7632 157.208 65.8049 157.325 65.8549C157.458 65.9049 157.6 65.9715 157.75 66.0549C157.917 66.1215 158.075 66.2049 158.225 66.3049C158.225 66.3382 158.208 66.3799 158.175 66.4299C158.158 66.4632 158.158 66.5132 158.175 66.5799C158.208 66.6465 158.267 66.7299 158.35 66.8299C158.45 66.9299 158.625 67.0632 158.875 67.2299C159.108 67.4132 159.233 67.5632 159.25 67.6799C159.267 67.7799 159.25 67.8799 159.2 67.9799C159.15 68.0632 159.117 68.1549 159.1 68.2549C159.083 68.3549 159.15 68.4799 159.3 68.6299C159.4 68.7299 159.542 68.7882 159.725 68.8049C159.908 68.8049 160.083 68.7882 160.25 68.7549C160.433 68.7049 160.592 68.6382 160.725 68.5549C160.875 68.4715 160.958 68.3799 160.975 68.2799C161.042 68.0632 161.1 67.8632 161.15 67.6799C161.217 67.4799 161.283 67.3132 161.35 67.1799C161.567 66.9965 161.708 66.8382 161.775 66.7049C161.858 66.5715 161.942 66.3882 162.025 66.1549C162.125 65.9382 162.2 65.7382 162.25 65.5549C162.317 65.3715 162.367 65.2715 162.4 65.2549C162.517 64.9215 162.667 64.5715 162.85 64.2049C163.05 63.8215 163.208 63.4215 163.325 63.0049C163.408 62.7215 163.483 62.4632 163.55 62.2299C163.633 61.9965 163.692 61.8049 163.725 61.6549L164.725 61.6299Z" fill="white"/>
<path d="M116 28.91L115.23 40.85C114.92 45.61 110.81 49.22 106.05 48.92L103.37 48.75C101.77 48.65 100.55 47.26 100.66 45.66L102.17 22.29C102.26 20.94 103.26 19.86 104.53 19.62C101.63 10.63 93.19 4.1 83.24 4.1C73.29 4.1 64.85 10.62 61.95 19.62C63.22 19.86 64.22 20.93 64.31 22.29L65.82 45.66C65.92 47.26 64.71 48.65 63.11 48.75L60.43 48.92C55.67 49.23 51.56 45.62 51.25 40.85L50.48 28.91C50.21 24.8 52.87 21.17 56.66 20.06C56.98 19.96 57.3 19.89 57.64 19.83C60.58 8.44 70.94 0 83.24 0C95.54 0 105.9 8.44 108.84 19.83C109.17 19.89 109.5 19.96 109.82 20.06C113.61 21.17 116.27 24.79 116 28.91ZM121.41 29.32C122.66 29.32 123.68 28.3 123.68 27.05C123.68 25.8 122.66 24.78 121.41 24.78C120.16 24.78 119.14 25.8 119.14 27.05C119.14 28.3 120.16 29.32 121.41 29.32ZM130.12 28.99C131.19 28.99 132.05 28.13 132.05 27.06C132.05 25.99 131.19 25.13 130.12 25.13C129.05 25.13 128.19 25.99 128.19 27.06C128.19 28.13 129.05 28.99 130.12 28.99ZM138.82 28.62C139.69 28.62 140.39 27.92 140.39 27.05C140.39 26.18 139.69 25.48 138.82 25.48C137.95 25.48 137.25 26.18 137.25 27.05C137.25 27.92 137.95 28.62 138.82 28.62ZM147.52 28.29C148.2 28.29 148.75 27.74 148.75 27.06C148.75 26.38 148.2 25.83 147.52 25.83C146.84 25.83 146.29 26.38 146.29 27.06C146.29 27.74 146.84 28.29 147.52 28.29ZM156.23 27.95C156.72 27.95 157.12 27.55 157.12 27.06C157.12 26.57 156.72 26.17 156.23 26.17C155.74 26.17 155.34 26.57 155.34 27.06C155.34 27.55 155.74 27.95 156.23 27.95ZM164.93 27.61C165.24 27.61 165.49 27.36 165.49 27.05C165.49 26.74 165.24 26.49 164.93 26.49C164.62 26.49 164.37 26.74 164.37 27.05C164.37 27.36 164.62 27.61 164.93 27.61ZM121.41 38.03C122.66 38.03 123.68 37.01 123.68 35.76C123.68 34.51 122.66 33.49 121.41 33.49C120.16 33.49 119.14 34.51 119.14 35.76C119.14 37.01 120.16 38.03 121.41 38.03ZM130.12 37.69C131.19 37.69 132.05 36.83 132.05 35.76C132.05 34.69 131.19 33.83 130.12 33.83C129.05 33.83 128.19 34.69 128.19 35.76C128.19 36.83 129.05 37.69 130.12 37.69ZM138.82 37.33C139.69 37.33 140.39 36.63 140.39 35.76C140.39 34.89 139.69 34.19 138.82 34.19C137.95 34.19 137.25 34.89 137.25 35.76C137.25 36.63 137.95 37.33 138.82 37.33ZM147.52 36.99C148.2 36.99 148.75 36.44 148.75 35.76C148.75 35.08 148.2 34.53 147.52 34.53C146.84 34.53 146.29 35.08 146.29 35.76C146.29 36.44 146.84 36.99 147.52 36.99ZM156.23 36.65C156.72 36.65 157.12 36.25 157.12 35.76C157.12 35.27 156.72 34.87 156.23 34.87C155.74 34.87 155.34 35.27 155.34 35.76C155.34 36.25 155.74 36.65 156.23 36.65ZM164.93 36.31C165.24 36.31 165.49 36.06 165.49 35.75C165.49 35.44 165.24 35.19 164.93 35.19C164.62 35.19 164.37 35.44 164.37 35.75C164.37 36.06 164.62 36.31 164.93 36.31ZM121.41 46.73C122.66 46.73 123.68 45.71 123.68 44.46C123.68 43.21 122.66 42.19 121.41 42.19C120.16 42.19 119.14 43.21 119.14 44.46C119.14 45.71 120.16 46.73 121.41 46.73ZM130.12 46.39C131.19 46.39 132.05 45.53 132.05 44.46C132.05 43.39 131.19 42.53 130.12 42.53C129.05 42.53 128.19 43.39 128.19 44.46C128.19 45.53 129.05 46.39 130.12 46.39ZM138.82 46.03C139.69 46.03 140.39 45.33 140.39 44.46C140.39 43.59 139.69 42.89 138.82 42.89C137.95 42.89 137.25 43.59 137.25 44.46C137.25 45.33 137.95 46.03 138.82 46.03ZM147.52 45.69C148.2 45.69 148.75 45.14 148.75 44.46C148.75 43.78 148.2 43.23 147.52 43.23C146.84 43.23 146.29 43.78 146.29 44.46C146.29 45.14 146.84 45.69 147.52 45.69ZM156.23 45.35C156.72 45.35 157.12 44.95 157.12 44.46C157.12 43.97 156.72 43.57 156.23 43.57C155.74 43.57 155.34 43.97 155.34 44.46C155.34 44.95 155.74 45.35 156.23 45.35ZM164.93 45.02C165.24 45.02 165.49 44.77 165.49 44.47C165.49 44.17 165.24 43.91 164.93 43.91C164.62 43.91 164.37 44.16 164.37 44.47C164.37 44.78 164.62 45.02 164.93 45.02ZM47.34 27.06C47.34 25.81 46.32 24.79 45.07 24.79C43.82 24.79 42.8 25.81 42.8 27.06C42.8 28.31 43.82 29.33 45.07 29.33C46.32 29.33 47.34 28.31 47.34 27.06ZM38.3 27.06C38.3 25.99 37.44 25.13 36.37 25.13C35.3 25.13 34.44 25.99 34.44 27.06C34.44 28.13 35.3 28.99 36.37 28.99C37.44 28.99 38.3 28.13 38.3 27.06ZM29.23 27.06C29.23 26.19 28.53 25.49 27.66 25.49C26.79 25.49 26.09 26.19 26.09 27.06C26.09 27.93 26.79 28.63 27.66 28.63C28.53 28.63 29.23 27.93 29.23 27.06ZM20.19 27.06C20.19 26.38 19.64 25.83 18.96 25.83C18.28 25.83 17.73 26.38 17.73 27.06C17.73 27.74 18.28 28.29 18.96 28.29C19.64 28.29 20.19 27.74 20.19 27.06ZM11.15 27.06C11.15 26.57 10.75 26.17 10.26 26.17C9.77 26.17 9.37 26.57 9.37 27.06C9.37 27.55 9.77 27.95 10.26 27.95C10.75 27.95 11.15 27.55 11.15 27.06ZM2.11 27.06C2.11 26.75 1.86 26.5 1.56 26.5C1.26 26.5 1 26.75 1 27.06C1 27.37 1.25 27.62 1.56 27.62C1.87 27.62 2.11 27.37 2.11 27.06ZM47.34 35.76C47.34 34.51 46.32 33.49 45.07 33.49C43.82 33.49 42.8 34.51 42.8 35.76C42.8 37.01 43.82 38.03 45.07 38.03C46.32 38.03 47.34 37.01 47.34 35.76ZM38.3 35.76C38.3 34.69 37.44 33.83 36.37 33.83C35.3 33.83 34.44 34.69 34.44 35.76C34.44 36.83 35.3 37.69 36.37 37.69C37.44 37.69 38.3 36.83 38.3 35.76ZM29.23 35.76C29.23 34.89 28.53 34.19 27.66 34.19C26.79 34.19 26.09 34.89 26.09 35.76C26.09 36.63 26.79 37.33 27.66 37.33C28.53 37.33 29.23 36.63 29.23 35.76ZM20.19 35.76C20.19 35.08 19.64 34.53 18.96 34.53C18.28 34.53 17.73 35.08 17.73 35.76C17.73 36.44 18.28 36.99 18.96 36.99C19.64 36.99 20.19 36.44 20.19 35.76ZM11.15 35.76C11.15 35.27 10.75 34.87 10.26 34.87C9.77 34.87 9.37 35.27 9.37 35.76C9.37 36.25 9.77 36.65 10.26 36.65C10.75 36.65 11.15 36.25 11.15 35.76ZM2.11 35.76C2.11 35.45 1.86 35.2 1.56 35.2C1.26 35.2 1 35.45 1 35.76C1 36.07 1.25 36.32 1.56 36.32C1.87 36.32 2.11 36.07 2.11 35.76ZM47.34 44.46C47.34 43.21 46.32 42.19 45.07 42.19C43.82 42.19 42.8 43.21 42.8 44.46C42.8 45.71 43.82 46.73 45.07 46.73C46.32 46.73 47.34 45.71 47.34 44.46ZM38.3 44.46C38.3 43.39 37.44 42.53 36.37 42.53C35.3 42.53 34.44 43.39 34.44 44.46C34.44 45.53 35.3 46.39 36.37 46.39C37.44 46.39 38.3 45.53 38.3 44.46ZM29.23 44.46C29.23 43.59 28.53 42.89 27.66 42.89C26.79 42.89 26.09 43.59 26.09 44.46C26.09 45.33 26.79 46.03 27.66 46.03C28.53 46.03 29.23 45.33 29.23 44.46ZM20.19 44.46C20.19 43.78 19.64 43.23 18.96 43.23C18.28 43.23 17.73 43.78 17.73 44.46C17.73 45.14 18.28 45.69 18.96 45.69C19.64 45.69 20.19 45.14 20.19 44.46ZM11.15 44.46C11.15 43.97 10.75 43.57 10.26 43.57C9.77 43.57 9.37 43.97 9.37 44.46C9.37 44.95 9.77 45.35 10.26 45.35C10.75 45.35 11.15 44.95 11.15 44.46ZM2.11 44.46C2.11 44.15 1.86 43.9 1.56 43.9C1.26 43.9 1 44.15 1 44.46C1 44.77 1.25 45.01 1.56 45.01C1.87 45.01 2.11 44.76 2.11 44.46Z" fill="url(#paint0_linear_113_4378)"/>
<defs>
<linearGradient id="paint0_linear_113_4378" x1="73.04" y1="-7.42" x2="85.6" y2="45.74" gradientUnits="userSpaceOnUse">
<stop stop-color="#12CCFF"/>
<stop offset="1" stop-color="#6500C9"/>
</linearGradient>
</defs>
</svg>
