<?xml version="1.0" encoding="UTF-8"?>
<svg id="Layer_1" data-name="Layer 1" xmlns="http://www.w3.org/2000/svg" xmlns:xlink="http://www.w3.org/1999/xlink" version="1.1" viewBox="0 0 169 91">
  <defs>
    <style>
      .cls-1 {
        fill: #6500c9;
      }

      .cls-1, .cls-2 {
        stroke-width: 0px;
      }

      .cls-2 {
        fill: url(#linear-gradient);
      }
    </style>
    <linearGradient id="linear-gradient" x1="73" y1="99.3" x2="85.6" y2="46.2" gradientTransform="translate(0 91.9) scale(1 -1)" gradientUnits="userSpaceOnUse">
      <stop offset="0" stop-color="#12ccff"/>
      <stop offset="1" stop-color="#6500c9"/>
    </linearGradient>
  </defs>
  <path class="cls-1" d="M1.9,76.9v-.6c0-.2,0-.4,0-.5,0-.1,0-.6,0-1.3,0-.4,0-.7-.1-1,0-.2,0-.4,0-.5v-.4c0,0,0-.2,0-.2,0-.4,0-.6,0-.8,0,0,0-.1.1-.2,0,0,0-.2,0-.3,0-.8,0-1.6.1-2.4,0-.9.1-1.7.1-2.4,0-.6,0-1,0-1.4s0-.6,0-.6c0-.2,0-.5,0-.7v-.8c0,0,0,0,0-.1l.6-.5h2.2c.2,0,.4,0,.5,0,0,0,.2,0,.2,0l.6.4c.2.2.3.3.4.3.1,0,.2,0,.3,0,0,0,.2-.2.2-.3,0-.1.1-.3.2-.4h1.3c0,0,2,.9,2,.9,0,0,.1.1.2.2,0,0,.1,0,.2.1,0,0,.2.2.2.2,0,0,.1,0,.2,0s.2,0,.5.1c.3,0,.6.3.8.7.2,0,.4,0,.6.2.2.1.4.2.5.4.1.1.2.3.3.4,0,.1.1.2,0,.2-.3.3-.4.5-.3.7.1.2.3.3.5.4,0,.3.2.5.4.6.2,0,.4.2.4.2,0,0,0,.3,0,.8,0,.4,0,1.1.2,2,0,.4,0,.8,0,1.2,0,.3,0,.6.1.8,0,.1,0,.3,0,.4,0,.1,0,.2,0,.3,0,0-.3.6-.9,1.4-.6.8-.9,1.4-.9,1.7h-1.3c0,0-.2,0-.2.1-.1,0-.2.1-.3.2l-.4.2s0,0-.1,0-.1,0-.2,0c0,0-.2,0-.4,0-.2,0-.3,0-.5,0-.4,0-.8.1-1,.2-.3,0-.5,0-.7,0,0-.2-.6-.2-1.7.2-.3,0-.6.2-.9.2-.3,0-.6,0-.8.1-.2,0-.3,0-.4,0-.1,0-.3,0-.4,0h-.6c0-.1-.2,0-.3,0,0,0-.2,0-.2,0,0,0-.1,0-.2,0,0,0-.2,0-.2,0s-.1,0-.2,0c0,0-.2,0-.2,0l-.7-.6ZM6.7,75.9c.2,0,.3-.2.5-.3.2-.1.4-.2.5-.1h.7s.1,0,.2-.1c.1,0,.2-.2.2-.2s.1,0,.1.1,0,0,.3,0,.2,0,.5,0c.2,0,.5-.2.8-.3.3-.1.5-.2.7-.3.2,0,.3-.1.3-.1,0,0,0,0,0-.1,0,0,0-.1,0-.2,0,0,0-.2,0-.3,0-.1.1-.3.2-.5.1-.4.2-.7.3-.9,0-.2.1-.4.1-.4l-.8-3c0-.1,0-.2,0-.3v-.3c0-.1,0-.3,0-.5,0-.7.1-1.1.1-1.1,0,0,0-.1-.2-.3,0-.2-.2-.4-.4-.7-.2-.3-.3-.6-.4-.9,0-.3-.2-.5-.2-.5l-2-1.3h-1.9c0,.2,0,.3-.1.4,0,0-.1,0-.1,0v.9c0,.2,0,.4,0,.6v1.7c-.3.1-.4.3-.5.5,0,.2,0,.4-.2.7,0,0,0,0,0,.2v.5c0,0,0,.2,0,.5,0,0,0,.3,0,.9.1.6.2.9.2.9,0,0,0,.2,0,.3,0,.2,0,.3-.1.5,0,.2,0,.3,0,.4,0,0,0,.2,0,.2,0,.2,0,.6,0,1.1,0,.3,0,.5,0,.7,0,.2,0,.3,0,.4,0,.1,0,.3,0,.4,0,.1,0,.3,0,.4l.8.3ZM30,60l.2.4s0,.3,0,.8c0,.5-.1,1-.2,1.7,0,.7-.1,1.4-.2,2.2,0,.8-.2,1.5-.2,2.2,0,.7-.1,1.2-.2,1.7,0,.5,0,.7,0,.8,0,.2,0,.5,0,.7,0,.2,0,.4,0,.5,0,.6,0,1,0,1.3,0,.3,0,.5,0,.8,0,0,0,.2-.1.5,0,.3-.2.8-.3,1.5,0,.4-.2.7-.2.9,0,.2-.1.3-.1.4,0,0,0,.1-.1.1,0,0,0,0,0,0-.2.3-.5.7-.8,1-.3.3-.5.5-.7.7-.2.2-.3.4-.5.5-.1.1-.2.2-.3.3l-2.4.5h-1.8c0,0-.6-.9-.6-.9v-.3s.1-.2.1-.2l1.6-.2.6-.3c.2,0,.3-.2.4-.3.1-.1.2-.3.3-.4.2-.3.5-.6.7-.9.2-.3.3-.7.3-1.3,0-.5,0-1,0-1.4,0-.2,0-.4,0-.6,0,0,0-.2,0-.4,0-.2,0-.4,0-.6,0-.2,0-.4,0-.6,0-.2,0-.4,0-.5,0-.3,0-.4,0-.5v-.2s0-.1.1-.3c.1-.2.2-.3.2-.4,0,0,0-.4,0-.9,0-.3,0-.5-.1-.7,0-.2,0-.3,0-.3,0,0,0,0,.1-.1,0,0,.1,0,.1-.2-.1,0-.1-.8-.1-2.3s0-.8,0-1.1c0-.4,0-.7,0-1,0-.3,0-.5,0-.8,0-.2,0-.3,0-.4.2,0,.3-.2.3-.3,0-.1,0-.2,0-.4.1,0,.3,0,.5-.1.2,0,.6,0,1,0,.7,0,1.3-.1,1.7-.3,0,0,.1,0,.2,0h.1c0,0,.1,0,.2,0h.1ZM37.4,75.5l2.8-.4,2.7-.8.6-1-.3-1.1-.7-.8c-.2-.1-.4-.2-.6-.3-.2-.1-.4-.2-.6-.2-.2,0-.4,0-.6,0-.2,0-.4,0-.6.2l-.6.5-2.1-1-.8-1.9.6-3.2,1.2-1.5c0,.1.1.2.3.1.2,0,.3,0,.5-.2.1,0,.3-.2.4-.3,0-.2.1-.3,0-.4.3,0,.6-.2,1-.2.4,0,.7-.2,1-.4l3.2-.7h.5s.5.5.5.5l-.4,1.1-.9.2h-1.2c0,.1-1.8,1.1-1.8,1.1l-.8,1.1c-.3.2-.4.5-.4.8,0,.3,0,.6.2.9.2.4.3.6.4.8.1,0,.2.2.4.3l1.5.5c.2.1.3.2.4.3.2,0,.3.1.5.1.2,0,.4,0,.8,0,.3,0,.8,0,1.3,0,.1.3.3.5.5.8.2.2.4.5.6.8l.5,1.1-.8,2.5-.6.6-1.2,1.8h-.6c-.2,0-.5,0-.8,0h-1.1c-.4,0-.8,0-1.1.1-.3,0-.6.2-.8.3-.2,0-.5.2-.7.2-.2,0-.3,0-.5,0l-.9-.3-1.5.2-.5-1.1v-.6c.1,0,.9-.4.9-.4ZM63.9,63.6h-1.7s-1.4.5-1.4.5c0,0-.2.3-.5.8-.1.3-.3.6-.4.9-.2.3-.3.5-.3.6l-.6,3.8s-.2.3-.3.8c0,.3-.2.5-.2.7l-.2.4c0,.1.2.4.5,1l.6-.4.5,1.1-.3.6c0,0,0,.2.1.2,0,0,0,0,0,.2v.2c0,0,.2.2.4.4.2.2.3.4.5.4.2,0,.3,0,.4-.1,0,0,.2,0,.2,0s.1,0,.2,0c0,0,.1,0,.2.1.8,0,1.5,0,2-.5.2,0,.4,0,.7,0,.3,0,.5-.2.8-.4,0,0,.1,0,.2-.2,0,0,.2-.2.3-.3.1-.1.2-.2.4-.3.1-.1.3-.2.4-.3,0,0,.1,0,.2.1,0,.1.1.2.2.2l.2.3-.4,1.3-1,.8-1.3.4c-.4.1-.9.3-1.3.4-.5.2-.8.2-1,.3-.2,0-.4,0-.6.1-.2,0-.4.1-.6.2-.2,0-.4.1-.5.2-.1,0-.2,0-.3,0-.6,0-1.1,0-1.4,0h-.6l-2.2-1.7c0-.3-.3-.8-.8-1.5-.5-.6-.7-1-.7-1.2l.2-2.1c0-.3,0-.7.1-1.1,0-.4,0-.7,0-1.1,0-.3,0-.6,0-.8,0-.2,0-.4,0-.4.1,0,.3-.2.6-.5.2-.3.5-.6.7-1.1.4-.9.6-1.6.5-2.3,0,0,.3,0,.7-.2.4,0,.8-.2,1.2-.4.4-.2.7-.3.9-.4.2,0,.3-.1.4-.1,0,0,0,0,.2,0,.1,0,.3,0,.4,0,.2,0,.3,0,.5,0,.2,0,.3,0,.3,0l.8-.8h2.2s.6.3.6.3l-.2.8-.5.4ZM86.5,66.2c0,.4,0,.7,0,1.1,0,.3,0,.7,0,1,0,.3,0,.7,0,1,0,.3.1.6.2.8,0,0-.2.2-.3.5-.1.2-.2.5-.3.8,0,.2,0,.4,0,.6,0,.1.1.2,0,.2,0,0,0,.1,0,.2,0,0,0,.1,0,.2,0,.1-.1.3-.2.5,0,.2-.2.4-.4.7-.2.3-.3.5-.4.7,0,.2,0,.3,0,.5v.4c0,.1,0,.2-.1.3,0,0-.1,0-.2,0-.1,0-.3,0-.4,0-.2,0-.4,0-.6.2-.2,0-.4.2-.5.3-.3,0-.6.2-.8.3-.2,0-.4.2-.8.2-.4,0-.6.2-.8.3-.1.1-.2.2-.3.2-.5,0-.9,0-1.1,0-.3,0-.4,0-.5,0h-.2c0,0-.2,0-.3,0l-3.5-1.1-1.8-2c0-.5,0-1,0-1.3,0-.4,0-.7,0-.9v-.8c0-.2,0-.5,0-.8,0,0,.2-.2.3-.5.2-.3.3-.6.5-.9.2-.3.3-.7.5-1,.1-.3.3-.6.3-.9,0-.2.1-.4.2-.6,0-.2,0-.3.1-.4,0,0,0-.2.1-.3,0,0,0-.2.1-.4l.6-.6s0-.1.3-.4c.2-.2.4-.5.7-.7.3-.3.5-.5.8-.8.3-.2.5-.4.7-.4h1.2c0-.1.5,0,.5,0,0,0,.1,0,.2,0h.4l.8.8c0,.2,0,.3.1.4,0,.1.2.2.5.3.3,0,.4,0,.4,0,0,0,0,0,0,0,.3,0,.7,0,1-.2.4-.2.7-.3,1-.3s.2,0,.3.1c0,0,.2.2.3.3l.3.3c0,.1.2.2.3.2,0,.3,0,.6,0,.7,0,.1.1.2.2.3,0,0,.2,0,.3.1,0,0,.2.1.2.2ZM82.3,73.8c0,0,.2-.1.2-.1,0,0,.1,0,.2-.2,0,0,.1-.2.2-.3,0-.2.1-.4.2-.8,0-.3.2-.6.2-.8,0-.2.1-.4.2-.6,0-.2,0-.3,0-.4,0-.1,0-.3,0-.4,0-.3,0-.6,0-.9,0-.4,0-.8,0-1.2,0-.3-.1-.6-.2-1,0-.3,0-.6,0-.9-.2-.1-.3-.3-.3-.5,0-.2-.1-.4-.3-.6-.1,0-.2-.1-.3-.1,0,0-.2,0-.3,0,0,0-.2,0-.2,0,0,0-.1,0-.2,0,0,0-.2,0-.3,0-.2,0-.3,0-.5,0-.2,0-.4,0-.6,0-.2,0-.3.2-.4.3-.5.6-.8.9-.9,1.1-.2.4-.4.8-.6,1.2-.2.4-.3.7-.5.9,0,.2-.2.4-.4.8-.2.3-.3.8-.3,1.4,0,0,0,.2,0,.4,0,.2-.1.4-.2.7,0,.3,0,.5-.1.8,0,.3,0,.5,0,.7,0,.2.2.4.4.8.2.3.6.7,1.1,1.1.3.2.6.4.7.7.1.2.2.3.3.3h.4c.2,0,.3,0,.4,0l2.2-2.7ZM101.5,72.9c0,0,.1-.1.2-.2,0-.1,0-.3,0-.4,0-.1,0-.3,0-.4,0-.2,0-.3.1-.4.2-.3.4-.5.5-.8.2-.2.3-.4.4-.5.1-.1.2-.3.3-.3,0,0,.1-.2.2-.3.2-.2.3-.3.3-.5,0-.1.1-.3.2-.5,0-.2.2-.4.3-.7,0-.3.2-.5.2-.5,0-.2.1-.3.2-.5.1-.2.3-.4.4-.6.1-.2.2-.5.3-.7,0-.3.2-.5.2-.8,0-.4,0-.7,0-.9,0-.3,0-.5,0-.7l.8-.2.9.4c0,.3,0,.5.2.7.2.2.3.3.3.5,0,.1,0,.4-.3.7-.2.3-.3.7-.5,1.2,0,.1-.1.3-.3.5-.2.2-.3.4-.3.7,0,.3,0,.6-.2.9-.1.3-.2.5-.2.6-.2.4-.4.9-.7,1.5-.3.6-.6,1.4-1.1,2.3-.4.9-.8,1.6-1.1,2.1-.3.5-.4.8-.5.9l-.2.5-.2.4-1,.7h-1.6s-.5.3-.5.3l-.9-1c0-.2-.2-.5-.5-.8-.2-.3-.4-.7-.5-1.1l-.6-1.5c.2-.3.2-.6.2-.8,0-.2,0-.3,0-.4,0,0-.2-.2-.3-.2-.2,0-.3,0-.5,0,0,0-.2-.1-.3-.3-.1-.2-.2-.3-.3-.4v-.6s-.7-1-.7-1l-.2-2.2c0-.1,0-.2,0-.3,0,0-.1-.1-.2-.2h-.3c-.1-.2-.2-.2-.2-.3-.1-.3-.2-.5-.3-.7,0-.2-.1-.4-.2-.6,0-.2-.1-.3-.2-.5,0-.1-.1-.3-.2-.4v-1c.2-.1.5-.2.8-.2.4,0,.7-.2.9-.4l.8-.2c.2.2.4.3.6.5.2.1.3.3.4.4.3.3.6.6,1.1.8,0,0,0,.3.2.6,0,.3.2.7.3,1.1.1.4.3.9.4,1.4.2.5.3,1,.5,1.4.2.5.3.9.5,1.3.2.4.3.7.4.9s.1.3.2.5c0,.2.1.4.2.7,0,.2.1.4.2.6,0,.2.1.3.1.4.1,0,.2,0,.3,0,0,0,.2,0,.2,0,0,0,.2,0,.3,0s.2,0,.3,0ZM125.9,68.9s0,.1,0,.2c0,0,0,.2,0,.3,0,.1,0,.2,0,.3,0,0,0,.2,0,.2-.6,0-1,0-1.2.2-.2,0-.3,0-.3,0h-2.2c-.1,0-.2,0-.3,0s-.1,0-.2,0c0,0,0,0-.1,0l-.5.3-.8-.3c0,0,0-.2-.2-.3-.1,0-.2-.2-.3-.3l.8-1.1c.3,0,.5,0,.5,0,0,0,0,0,0,0,0,0,0,0,.2,0,0,0,.2,0,.3,0h.4c.1,0,.7,0,1.6,0,0,0,.1,0,.4.1,0,0,.3,0,.6,0,.3,0,.7,0,1.2,0l.4.5ZM126,75.7c0,.1,0,.2,0,.4,0,.1,0,.2,0,.3,0,0-.1,0-.3.1-.2,0-.4.1-.7.2-.3,0-.6.1-.9,0-.3,0-.6,0-.8,0-.8,0-1.7.1-2.5.4-.2,0-.4.1-.6.2-.2,0-.3,0-.4.1,0,0-.1,0-.2,0,0,0,0,0-.2,0h-1.9c-.2.1-.3.1-.5.1-.2,0-.3,0-.5-.1-.2,0-.3,0-.5-.1-.1,0-.2,0-.3,0s-.2,0-.4,0h-.5c-.2-.1-.3-.2-.5-.3-.1-.1-.1-.4,0-.7,0-.2,0-.3.2-.5,0-.2.1-.4,0-.5,0,0,0-.2-.1-.3,0-.2,0-.3-.1-.5,0-.2,0-.3,0-.5,0-.2.1-.3.3-.4.1-.2.2-.4.2-.6,0-.2,0-.4-.2-.6,0-.1.2-.2.2-.4,0-.2,0-.3,0-.5,0-.2,0-.3,0-.4,0-.1,0-.2,0-.2,0-.2,0-.5.1-.9,0-.4,0-.8.1-1.2,0-.4,0-.8.1-1.1,0-.4,0-.6,0-.8,0-.2,0-.4,0-.7,0-.2.1-.5.2-.7,0-.2.1-.5.2-.7,0-.2,0-.5,0-.7v-.2c0,0,0-.3-.1-.8l.4-.9h0c.3,0,.7,0,1,0,.3,0,.7,0,1,0,.3,0,.5,0,.7,0,.2,0,.3,0,.3,0h3.5c.1,0,.3,0,.4.2.2.1.9.2,2,.2,0,0,0,.1,0,.2,0,0,0,.1,0,.2,0,.3.1.5.2.7l-.2.2c-.2,0-.4,0-.6,0h-.3c0,0,0,0,0,0,0,0,0,0,0,0l-1.9-.2c-.5-.1-1.1,0-1.8.2-.3,0-.6.1-.8,0-.2,0-.3,0-.4,0-.2,0-.4,0-.5,0-.1,0-.2.2-.1.4,0,.2.1.3.2.3,0,0,.1,0,.2.2,0,0,0,.1,0,.2,0,0,.1.2.2.2,0,0,.2.2.3.2,0,0,.1,0,.1,0,0,0,0,.2-.1.5,0,.3-.1.7-.2,1.1,0,.4,0,.9,0,1.4,0,.5.2,1,.4,1.4,0,.2-.2.5-.2,1.1,0,.5-.1,1-.2,1.5,0,.5,0,1,0,1.5,0,.4,0,.6,0,.7,0,0,0,0,0,.1,0,0,0,.1,0,.2,0,0,0,.1-.1.2,0,0-.1,0-.2,0v.2h.2c0,0,0,.2,0,.3s0,.3,0,.4l1.9-.2c.3,0,.7,0,1.2,0,.4,0,.9,0,1.5-.2.6,0,1-.1,1.3,0,.3,0,.6,0,.8-.2h.6s.5.5.5.5ZM136.1,77.3h-.3c-.2.2-.5.2-.8.3-.3,0-.5,0-.6,0s-.2,0-.3,0c-.2,0-.3,0-.4,0s-.1,0-.2.1l-1.1-.4v-.2c0,0,0-.1,0-.2,0-.2,0-.4,0-.7,0-.2,0-.4,0-.6.1-.1.1-.5,0-1.2,0-.7-.1-1.1-.1-1.3s0-.2,0-.4c0-.2,0-.4,0-.6,0,0,0-.1.1-.2,0,0,.1-.2.1-.3,0-.5,0-.9,0-1.2,0-.3.1-.6,0-1,0,0,0-.2,0-.2,0,0,0-.2,0-.3v-1.6c0-.3,0-.6,0-1,0-.8,0-1.2,0-1.5,0-.2,0-.4,0-.5,0-.2,0-.3.1-.4,0-.1.1-.3.1-.5s0,0-.1-.2c0,0-.1-.2-.2-.3,0,0,0-.1-.1-.2,0,0,0-.2,0-.3,0-.1,0-.2,0-.2,0,0,0-.3,0-.6.4-.1.9-.2,1.4-.2s.8,0,1.1,0c0,0,.2,0,.2,0,0,0,.1,0,.2,0,0,0,.1,0,.2,0,0,0,.2,0,.4,0,0,.2.2.3.3.5s.2.4.3.5c.2.3.4.4.6.4.2,0,.4,0,.6-.2.2-.1.3-.3.4-.4.1-.2.2-.2.2-.2h2.8s2.2,1.5,2.2,1.5c0,0,.2.2.3.3.1,0,.3.2.4.4.3.3.6.5.8.5l.6.9c0,0-.1.2-.2.4-.1.2-.2.6-.5,1-.4.9-.6,1.6-.6,2.1l-.5.3c-.3.1-.5.5-.5,1-.3,0-.8,0-1.4.3-.2,0-.4.1-.6.2-.2,0-.4,0-.6,0-.1,0-.2,0-.4,0h-.3l-.3.6c-.2-.1-.4-.2-.7-.3-.2,0-.5,0-.8,0-.2,0-.5,0-.7,0-.2,0-.4.1-.6.2-.6.2-.8.3-.9.3h-.1s0,0,0,0c0,.2,0,.4-.2.6,0,.2-.1.4-.1.5s0,.2,0,.4c0,.2,0,.4,0,.7,0,.3,0,.5,0,.7,0,.2,0,.3,0,.4v.7c.1.1.2.3.2.4,0,.1,0,.2,0,.4l-.4.9ZM137,63.9v.5c0,.2,0,.4,0,.6,0,1,.1,1.6,0,1.8-.3.2-.5.5-.6.9,0,.2-.1.4-.2.6,0,.2-.1.3-.2.5h0v.4c0,0,0,.2,0,.3l.5.3h.5c0,.2.5.2,1.4-.2.9-.4,1.4-.5,1.5-.5h1.1c.1-.2.3-.4.5-.6.2-.2.3-.3.3-.4l.3-1.8v-.6c-.1,0-3.5-2.4-3.5-2.4h-1.1l-.5.5ZM144.2,77.3c0-.2-.1-.2-.3-.3,0,0,0-.2,0-.3,0-.1,0-.2,0-.2,0,0,0,0,0,0s0,0,0,0c0,0,0,0-.2-.2,0,0-.1-.1-.2-.2,0,0-.1-.2-.2-.3-.2-.2-.3-.4-.4-.5-.1-.2-.2-.2-.2-.3,0,0-.2,0-.3-.2-.1-.1-.2-.2-.3-.2,0,0,0-.1-.1-.2,0,0,0-.1,0-.1,0,0,0-.2-.1-.4,0-.2-.1-.4-.2-.5-.2-.2-.5-.5-.8-.9-.1-.1-.2-.2-.2-.2l.3-.5,1.2.6s.1,0,.2,0c.2,0,.3,0,.5,0,.2,0,.4,0,.5,0,.2,0,.3,0,.4.2,0,0,.1.1.2.2,0,0,.2,0,.3,0,.1,0,.2,0,.3,0,0,0,.1,0,.1,0l.5.9c0,0,.2.2.4.4.2.2.4.4.7.8.6.7.9,1.1.9,1.1v.9c0,0-2.1.6-2.1.6l-.7-.2ZM164.7,61.6l1.1.4c0,.2,0,.5,0,.7,0,.2,0,.4,0,.5,0,.1-.1.4-.3.7-.1.3-.2.7-.3,1.2,0,.1,0,.2-.2.4,0,.1-.2.3-.3.4-.1.1-.2.3-.4.4-.1.1-.2.3-.3.4-.3.7-.6,1.2-.8,1.6-.2.4-.4.8-.5,1v.4c-.1,0-.3.7-.3.7v1.1c0,0,0,.2,0,.3,0,.2,0,.5,0,.8,0,.3,0,.6-.1.9,0,.3-.1.6-.2.8,0,.2,0,.4,0,.6l.3,1.5-.2.7-2.7.6h-.2c0,0-.1,0-.2,0h-.6l-.8-.7c0,0,.1-.3.1-.7s0-.3,0-.3c0,0,0-.2,0-.3,0,0,0-.3,0-.6,0-.3,0-.7.2-1.2,0-.3,0-.5,0-.8,0-.3,0-.5,0-.8s0-.4,0-.6c0-.2,0-.2,0-.2,0,0,0,0-.1-.1,0,0,0,0,0-.2,0,0-.1-.2-.2-.3,0-.1-.2-.3-.3-.5-.2-.3-.3-.5-.4-.7-.1-.1-.2-.2-.3-.2,0,0-.2-.1-.3-.2-.1,0-.3-.2-.5-.4-.2-.7-.5-1.4-.9-2-.4-.6-.9-1.2-1.4-1.8-.4-.4-.6-.7-.8-1-.1-.3-.3-.5-.6-.7v-1.1c0-.1.2-.2.4-.2,0,0,.2,0,.4,0,.2,0,.4-.1.5-.2.2,0,.4-.2.5-.2.1,0,.2-.2.3-.2h.9c.1.2.3.3.4.4.1,0,.2.2.3.3.3.3.6.6,1,.8,0,.3,0,.5.1.7.1.2.2.4.3.5.1.1.2.3.4.3.2,0,.3.2.4.5,0,0,0,.1,0,.2,0,0,0,.2-.1.3,0,0-.1.2-.2.3,0,0,0,.1-.1.1s0,0,0,0c0,0,.2,0,.3.1.1,0,.3.1.4.2.2,0,.3.2.5.2,0,0,0,0,0,.1,0,0,0,0,0,.2,0,0,0,.1.2.2,0,0,.3.2.5.4.2.2.4.3.4.5,0,0,0,.2,0,.3,0,0,0,.2,0,.3,0,0,0,.2.2.4,0,0,.2.2.4.2.2,0,.4,0,.5,0,.2,0,.3-.1.5-.2.1,0,.2-.2.2-.3,0-.2.1-.4.2-.6,0-.2.1-.4.2-.5.2-.2.4-.3.4-.5,0-.1.2-.3.2-.6.1-.2.2-.4.2-.6,0-.2.1-.3.1-.3.1-.3.3-.7.5-1,.2-.4.4-.8.5-1.2,0-.3.2-.5.2-.8,0-.2.1-.4.2-.6h1Z"/>
  <path class="cls-2" d="M116,28.9l-.8,11.9c-.3,4.8-4.4,8.4-9.2,8.1l-2.7-.2c-1.6,0-2.8-1.5-2.7-3.1l1.5-23.4c0-1.4,1.1-2.4,2.4-2.7-2.9-9-11.3-15.5-21.3-15.5s-18.4,6.5-21.3,15.5c1.3.2,2.3,1.3,2.4,2.7l1.5,23.4c0,1.6-1.1,3-2.7,3.1l-2.7.2c-4.8.3-8.9-3.3-9.2-8.1l-.8-11.9c-.3-4.1,2.4-7.7,6.2-8.9.3-.1.6-.2,1-.2C60.6,8.4,70.9,0,83.2,0s22.7,8.4,25.6,19.8c.3,0,.7.1,1,.2,3.8,1.1,6.4,4.7,6.2,8.9ZM121.4,29.3c1.2,0,2.3-1,2.3-2.3s-1-2.3-2.3-2.3-2.3,1-2.3,2.3,1,2.3,2.3,2.3ZM130.1,29c1.1,0,1.9-.9,1.9-1.9s-.9-1.9-1.9-1.9-1.9.9-1.9,1.9.9,1.9,1.9,1.9ZM138.8,28.6c.9,0,1.6-.7,1.6-1.6s-.7-1.6-1.6-1.6-1.6.7-1.6,1.6.7,1.6,1.6,1.6ZM147.5,28.3c.7,0,1.2-.6,1.2-1.2s-.6-1.2-1.2-1.2-1.2.5-1.2,1.2.6,1.2,1.2,1.2ZM156.2,28c.5,0,.9-.4.9-.9s-.4-.9-.9-.9-.9.4-.9.9.4.9.9.9ZM164.9,27.6c.3,0,.6-.2.6-.6s-.2-.6-.6-.6-.6.2-.6.6.2.6.6.6ZM121.4,38c1.2,0,2.3-1,2.3-2.3s-1-2.3-2.3-2.3-2.3,1-2.3,2.3,1,2.3,2.3,2.3ZM130.1,37.7c1.1,0,1.9-.9,1.9-1.9s-.9-1.9-1.9-1.9-1.9.9-1.9,1.9.9,1.9,1.9,1.9ZM138.8,37.3c.9,0,1.6-.7,1.6-1.6s-.7-1.6-1.6-1.6-1.6.7-1.6,1.6.7,1.6,1.6,1.6ZM147.5,37c.7,0,1.2-.6,1.2-1.2s-.6-1.2-1.2-1.2-1.2.6-1.2,1.2.6,1.2,1.2,1.2ZM156.2,36.7c.5,0,.9-.4.9-.9s-.4-.9-.9-.9-.9.4-.9.9.4.9.9.9ZM164.9,36.3c.3,0,.6-.2.6-.6s-.2-.6-.6-.6-.6.2-.6.6.2.6.6.6ZM121.4,46.7c1.2,0,2.3-1,2.3-2.3s-1-2.3-2.3-2.3-2.3,1-2.3,2.3,1,2.3,2.3,2.3ZM130.1,46.4c1.1,0,1.9-.9,1.9-1.9s-.9-1.9-1.9-1.9-1.9.9-1.9,1.9.9,1.9,1.9,1.9ZM138.8,46c.9,0,1.6-.7,1.6-1.6s-.7-1.6-1.6-1.6-1.6.7-1.6,1.6.7,1.6,1.6,1.6ZM147.5,45.7c.7,0,1.2-.5,1.2-1.2s-.6-1.2-1.2-1.2-1.2.5-1.2,1.2.6,1.2,1.2,1.2ZM156.2,45.3c.5,0,.9-.4.9-.9s-.4-.9-.9-.9-.9.4-.9.9.4.9.9.9ZM164.9,45c.3,0,.6-.2.6-.5s-.2-.6-.6-.6-.6.2-.6.6.2.5.6.5ZM47.3,27.1c0-1.2-1-2.3-2.3-2.3s-2.3,1-2.3,2.3,1,2.3,2.3,2.3,2.3-1,2.3-2.3ZM38.3,27.1c0-1.1-.9-1.9-1.9-1.9s-1.9.9-1.9,1.9.9,1.9,1.9,1.9,1.9-.9,1.9-1.9ZM29.2,27.1c0-.9-.7-1.6-1.6-1.6s-1.6.7-1.6,1.6.7,1.6,1.6,1.6,1.6-.7,1.6-1.6ZM20.2,27.1c0-.7-.6-1.2-1.2-1.2s-1.2.5-1.2,1.2.6,1.2,1.2,1.2,1.2-.6,1.2-1.2ZM11.1,27.1c0-.5-.4-.9-.9-.9s-.9.4-.9.9.4.9.9.9.9-.4.9-.9ZM2.1,27.1c0-.3-.2-.6-.5-.6s-.6.2-.6.6.2.6.6.6.5-.2.5-.6ZM47.3,35.8c0-1.2-1-2.3-2.3-2.3s-2.3,1-2.3,2.3,1,2.3,2.3,2.3,2.3-1,2.3-2.3ZM38.3,35.8c0-1.1-.9-1.9-1.9-1.9s-1.9.9-1.9,1.9.9,1.9,1.9,1.9,1.9-.9,1.9-1.9ZM29.2,35.8c0-.9-.7-1.6-1.6-1.6s-1.6.7-1.6,1.6.7,1.6,1.6,1.6,1.6-.7,1.6-1.6ZM20.2,35.8c0-.7-.6-1.2-1.2-1.2s-1.2.6-1.2,1.2.6,1.2,1.2,1.2,1.2-.6,1.2-1.2ZM11.1,35.8c0-.5-.4-.9-.9-.9s-.9.4-.9.9.4.9.9.9.9-.4.9-.9ZM2.1,35.8c0-.3-.2-.6-.5-.6s-.6.2-.6.6.2.6.6.6.5-.2.5-.6ZM47.3,44.5c0-1.2-1-2.3-2.3-2.3s-2.3,1-2.3,2.3,1,2.3,2.3,2.3,2.3-1,2.3-2.3ZM38.3,44.5c0-1.1-.9-1.9-1.9-1.9s-1.9.9-1.9,1.9.9,1.9,1.9,1.9,1.9-.9,1.9-1.9ZM29.2,44.5c0-.9-.7-1.6-1.6-1.6s-1.6.7-1.6,1.6.7,1.6,1.6,1.6,1.6-.7,1.6-1.6ZM20.2,44.5c0-.7-.6-1.2-1.2-1.2s-1.2.5-1.2,1.2.6,1.2,1.2,1.2,1.2-.5,1.2-1.2ZM11.1,44.5c0-.5-.4-.9-.9-.9s-.9.4-.9.9.4.9.9.9.9-.4.9-.9ZM2.1,44.5c0-.3-.2-.6-.5-.6s-.6.2-.6.6.2.5.6.5.5-.2.5-.5Z"/>
</svg>