<svg width="66" height="49" viewBox="0 0 66 49" fill="none" xmlns="http://www.w3.org/2000/svg">
<g clip-path="url(#clip0_198_1087)">
<path d="M65.5298 28.91L64.7598 40.85C64.4498 45.61 60.3398 49.22 55.5798 48.92L52.8998 48.75C51.2998 48.65 50.0798 47.26 50.1898 45.66L51.6998 22.29C51.7898 20.94 52.7898 19.86 54.0598 19.62C51.1598 10.63 42.7198 4.1 32.7698 4.1C22.8198 4.1 14.3798 10.62 11.4798 19.62C12.7498 19.86 13.7498 20.93 13.8398 22.29L15.3498 45.66C15.4498 47.26 14.2398 48.65 12.6398 48.75L9.95982 48.92C5.19982 49.23 1.08982 45.62 0.779817 40.85L0.0198169 28.91C-0.250183 24.8 2.40982 21.17 6.19982 20.06C6.51982 19.96 6.83982 19.89 7.17982 19.83C10.1098 8.44 20.4798 0 32.7798 0C45.0798 0 55.4398 8.44 58.3798 19.83C58.7098 19.89 59.0398 19.96 59.3598 20.06C63.1498 21.17 65.8098 24.79 65.5398 28.91H65.5298Z" fill="url(#paint0_linear_198_1087)"/>
</g>
<defs>
<linearGradient id="paint0_linear_198_1087" x1="23.5698" y1="-6.31" x2="34.2598" y2="38.97" gradientUnits="userSpaceOnUse">
<stop stop-color="#12CCFF"/>
<stop offset="1" stop-color="#6500C9"/>
</linearGradient>
<clipPath id="clip0_198_1087">
<rect width="65.55" height="48.93" fill="white"/>
</clipPath>
</defs>
</svg>
