<svg width="25" height="25" viewBox="0 0 25 25" fill="none" xmlns="http://www.w3.org/2000/svg">
<path d="M18.4019 -0.00830078H5.85239C2.61869 -0.00830078 -0.00390625 2.6134 -0.00390625 5.84602V18.3913C-0.00390625 21.6239 2.61869 24.2456 5.85239 24.2456H18.4019C21.6356 24.2456 24.2582 21.6239 24.2582 18.3913V5.84602C24.2582 2.6134 21.6356 -0.00830078 18.4019 -0.00830078ZM22.1664 17.9736C22.1664 20.2822 20.2923 22.1557 17.9829 22.1557H6.27028C3.96082 22.1557 2.08672 20.2822 2.08672 17.9736V6.26493C2.08672 3.95625 3.96082 2.08278 6.27028 2.08278H17.9829C20.2923 2.08278 22.1664 3.95625 22.1664 6.26493V17.9736Z" fill="white"/>
<path d="M12.1384 5.84601C8.67542 5.84601 5.86426 8.65622 5.86426 12.1181C5.86426 15.5799 8.67542 18.3901 12.1384 18.3901C15.6015 18.3901 18.4126 15.5799 18.4126 12.1181C18.4126 8.65622 15.6015 5.84601 12.1384 5.84601ZM12.1384 16.3002C9.83364 16.3002 7.95487 14.4221 7.95487 12.1181C7.95487 9.81405 9.83364 7.93592 12.1384 7.93592C14.4432 7.93592 16.322 9.81405 16.322 12.1181C16.322 14.4221 14.4432 16.3002 12.1384 16.3002Z" fill="white"/>
<path d="M18.831 6.68269C18.1396 6.68269 17.5762 6.11948 17.5762 5.42827C17.5762 4.73706 18.1396 4.17386 18.831 4.17386C19.5225 4.17386 20.0859 4.73706 20.0859 5.42827C20.0859 6.11948 19.5225 6.68269 18.831 6.68269Z" fill="white"/>
</svg>
