<svg width="17" height="32" viewBox="0 0 17 32" fill="none" xmlns="http://www.w3.org/2000/svg">
<path d="M16.9783 14.3252L16.593 17.4182C16.5278 17.9348 16.0901 18.3235 15.571 18.3235H10.5598V31.2551C10.0313 31.3028 9.49583 31.3273 8.95455 31.3273C7.74395 31.3273 6.56244 31.2062 5.42052 30.9758V18.3235H1.56638C1.21251 18.3235 0.923828 18.0337 0.923828 17.6788V13.8085C0.923828 13.4536 1.21251 13.1639 1.56638 13.1639H5.42052V7.35958C5.42052 3.79766 8.29687 0.910645 11.846 0.910645H16.3427C16.6966 0.910645 16.9853 1.20039 16.9853 1.55531V5.4256C16.9853 5.78051 16.6966 6.07026 16.3427 6.07026H13.13C11.711 6.07026 10.5609 7.2246 10.5609 8.65007V13.165H15.9574C16.5767 13.165 17.0551 13.7096 16.9795 14.3263L16.9783 14.3252Z" fill="white"/>
</svg>
