<svg width="24" height="24" viewBox="0 0 24 24" fill="none" xmlns="http://www.w3.org/2000/svg">
<path d="M3.93582 6.93944C5.58096 6.93944 6.9146 5.60624 6.9146 3.96166C6.9146 2.31708 5.58096 0.983887 3.93582 0.983887C2.29069 0.983887 0.957031 2.31708 0.957031 3.96166C0.957031 5.60624 2.29069 6.93944 3.93582 6.93944Z" fill="white"/>
<path d="M6.19641 8.92346H1.67644C1.55365 8.92346 1.4541 9.02297 1.4541 9.14572V23.5889C1.4541 23.7117 1.55365 23.8112 1.67644 23.8112H6.19641C6.3192 23.8112 6.41874 23.7117 6.41874 23.5889V9.14572C6.41874 9.02297 6.3192 8.92346 6.19641 8.92346Z" fill="white"/>
<path d="M23.297 14.3833V22.8197C23.297 23.3655 22.85 23.8123 22.3041 23.8123H19.3253C18.7794 23.8123 18.3324 23.3655 18.3324 22.8197V15.8716C18.3324 14.502 17.2207 13.3907 15.8507 13.3907C14.4806 13.3907 13.3689 14.502 13.3689 15.8716V22.8197C13.3689 23.3655 12.9219 23.8123 12.376 23.8123H9.39721C8.85128 23.8123 8.4043 23.3655 8.4043 22.8197V9.91605C8.4043 9.37029 8.85128 8.92345 9.39721 8.92345H12.376C12.9219 8.92345 13.3689 9.37029 13.3689 9.91605V10.5514C14.3619 9.26556 16.0055 8.42773 17.8365 8.42773C20.5767 8.42773 23.297 10.4129 23.297 14.3833Z" fill="white"/>
</svg>
